<svg width="65" height="65" viewBox="0 0 65 65" fill="none" xmlns="http://www.w3.org/2000/svg">
<rect x="0.5" y="0.5" width="64" height="64" rx="32" fill="white" stroke="#E9ECF2"/>
<path d="M16 25C16 24.4477 16.4477 24 17 24H34C34.5523 24 35 24.4477 35 25V40H17C16.4477 40 16 39.5523 16 39V25Z" fill="#D7DDF1"/>
<rect x="15" y="24" width="18" height="16" rx="1" fill="#E9ECF7"/>
<path d="M15 36H33V40H16C15.4477 40 15 39.5523 15 39V36Z" fill="#F05050"/>
<path d="M23.5 28C23.5 27.4477 23.9477 27 24.5 27C25.0523 27 25.5 27.4477 25.5 28V33C25.5 33.5523 25.0523 34 24.5 34C23.9477 34 23.5 33.5523 23.5 33V28Z" fill="#ED2828"/>
<path d="M22 31.5C21.4477 31.5 21 31.0523 21 30.5C21 29.9477 21.4477 29.5 22 29.5L27 29.5C27.5523 29.5 28 29.9477 28 30.5C28 31.0523 27.5523 31.5 27 31.5L22 31.5Z" fill="#ED2828"/>
<rect x="14" y="40" width="36" height="3" rx="1.5" fill="#808D9E"/>
<rect x="14" y="40" width="34" height="3" rx="1.5" fill="#C3CBD8"/>
<path d="M36 26H44.5L49 33V40H36V26Z" fill="#BAD8F1"/>
<path d="M35 26H43.5L48 33V40H35V26Z" fill="#E9ECF6"/>
<path d="M41.5 26L44.5 26L49 33H44.5C42.8431 33 41.5 31.6569 41.5 30L41.5 26Z" fill="#85BEEF"/>
<path d="M40.5 26L43.5 26L48 33H43.5C41.8431 33 40.5 31.6569 40.5 30L40.5 26Z" fill="#9FD4FE"/>
<path d="M41.5 26.5V26H40.5V26.5H41.5ZM49 33.5C49.2761 33.5 49.5 33.2761 49.5 33C49.5 32.7239 49.2761 32.5 49 32.5V33.5ZM40.5 26.5V30H41.5V26.5H40.5ZM44 33.5H49V32.5H44V33.5ZM40.5 30C40.5 31.933 42.067 33.5 44 33.5V32.5C42.6193 32.5 41.5 31.3807 41.5 30H40.5Z" fill="#375E7D"/>
<path d="M46 35H49V38H46C45.4477 38 45 37.5523 45 37V36C45 35.4477 45.4477 35 46 35Z" fill="#5C9FD9"/>
<path d="M45 35H48V38H45C44.4477 38 44 37.5523 44 37V36C44 35.4477 44.4477 35 45 35Z" fill="#85BEEF"/>
<path d="M49 35H45C44.4477 35 44 35.4477 44 36V37C44 37.5523 44.4477 38 45 38H49" stroke="#375E7D" stroke-linecap="round"/>
<circle cx="22.5" cy="42.5" r="3.5" fill="#2B4D66"/>
<path d="M24.5 42.5C24.5 44.433 23.6569 46 22 46C20.3431 46 19 44.433 19 42.5C19 40.567 20.3431 39 22 39C23.6569 39 24.5 40.567 24.5 42.5Z" fill="#375E7D"/>
<circle cx="22.5" cy="42.5" r="1.5" fill="white"/>
<circle cx="41.5" cy="42.5" r="3.5" fill="#2B4D66"/>
<path d="M43.5 42.5C43.5 44.433 42.6569 46 41 46C39.3431 46 38 44.433 38 42.5C38 40.567 39.3431 39 41 39C42.6569 39 43.5 40.567 43.5 42.5Z" fill="#375E7D"/>
<circle cx="41.5" cy="42.5" r="1.5" fill="white"/>
<path d="M37.0097 26H41.9999L42 24.5593C42 23.0888 40.7864 21.9065 39.3301 22.0058C38.0001 22.0952 37.0001 23.2875 37.0001 24.6487L37 26L37.0097 26ZM37.9223 24.5593C37.9223 23.6651 38.631 22.9398 39.5049 22.9398C39.6699 22.9398 39.8058 23.0789 39.8058 23.2478C39.8058 23.4167 39.6699 23.5558 39.5049 23.5558C38.9709 23.5558 38.534 24.0028 38.534 24.5493V25.056C38.534 25.2249 38.3981 25.364 38.233 25.364C38.068 25.364 37.9321 25.2249 37.9321 25.056V24.5593H37.9223Z" fill="#ED2828"/>
<path d="M39.5 21C39.7742 21 40 20.8069 40 20.5724V19.4276C40 19.1931 39.7742 19 39.5 19C39.2258 19 39 19.1931 39 19.4276V20.5724C39 20.8069 39.2258 21 39.5 21Z" fill="#ED2828"/>
<path d="M36.1311 22.8525C36.2295 22.9508 36.3606 23 36.4918 23C36.623 23 36.7541 22.9508 36.8525 22.8525C37.0492 22.6558 37.0492 22.3278 36.8525 22.1148L35.8852 21.1475C35.6885 20.9508 35.3606 20.9508 35.1475 21.1475C34.9508 21.3442 34.9508 21.6722 35.1475 21.8852L36.1311 22.8525Z" fill="#ED2828"/>
<path d="M36 24.5001C36 24.2259 35.8082 24.0001 35.5754 24.0001L34.4246 24C34.1918 24 34 24.2258 34 24.4999C34 24.7741 34.1918 24.9999 34.4246 24.9999L35.5753 25C35.8082 25 36 24.7742 36 24.5001Z" fill="#ED2828"/>
<path d="M44.5862 24H43.4276C43.1931 24 43 24.2258 43 24.5C43 24.7742 43.1931 25 43.4276 25H44.5724C44.8069 25 45 24.7742 45 24.5C45 24.2258 44.8207 24 44.5862 24H44.5862Z" fill="#ED2828"/>
<path d="M42.5124 23C42.6446 23 42.7769 22.9508 42.876 22.8525L43.8513 21.8852C44.0496 21.6885 44.0496 21.3606 43.8513 21.1475C43.6529 20.9508 43.3223 20.9508 43.1075 21.1475L42.1487 22.1311C41.9504 22.3278 41.9504 22.6558 42.1487 22.8688C42.2479 22.9508 42.3801 23 42.5124 23V23Z" fill="#ED2828"/>
</svg>
