<svg width="160" height="96" viewBox="0 0 160 96" fill="none" xmlns="http://www.w3.org/2000/svg">
<rect x="0.5" y="0.5" width="159" height="95" rx="7.5" fill="#F8F8FB" stroke="#808D9E" stroke-dasharray="2 2"/>
<path d="M52.72 68V59.6H55.702C56.134 59.6 56.524 59.688 56.872 59.864C57.224 60.04 57.502 60.294 57.706 60.626C57.914 60.954 58.018 61.348 58.018 61.808C58.018 62.032 57.982 62.252 57.91 62.468C57.838 62.684 57.736 62.874 57.604 63.038C57.472 63.202 57.312 63.318 57.124 63.386C57.38 63.45 57.592 63.566 57.76 63.734C57.932 63.898 58.068 64.09 58.168 64.31C58.268 64.53 58.338 64.758 58.378 64.994C58.422 65.23 58.444 65.454 58.444 65.666C58.444 66.114 58.336 66.514 58.12 66.866C57.904 67.218 57.614 67.496 57.25 67.7C56.89 67.9 56.492 68 56.056 68H52.72ZM53.968 66.92H55.936C56.192 66.92 56.424 66.856 56.632 66.728C56.844 66.6 57.012 66.424 57.136 66.2C57.26 65.972 57.322 65.716 57.322 65.432C57.322 65.184 57.26 64.95 57.136 64.73C57.012 64.506 56.844 64.326 56.632 64.19C56.424 64.054 56.192 63.986 55.936 63.986H53.968V66.92ZM53.968 62.924H55.57C55.898 62.924 56.18 62.824 56.416 62.624C56.652 62.424 56.77 62.15 56.77 61.802C56.77 61.43 56.652 61.152 56.416 60.968C56.18 60.78 55.898 60.686 55.57 60.686H53.968V62.924ZM64.0325 62H65.2805V68H64.0265L63.9785 67.13C63.8025 67.438 63.5645 67.686 63.2645 67.874C62.9645 68.062 62.6105 68.156 62.2025 68.156C61.7625 68.156 61.3485 68.074 60.9605 67.91C60.5725 67.742 60.2305 67.51 59.9345 67.214C59.6425 66.918 59.4145 66.578 59.2505 66.194C59.0865 65.806 59.0045 65.39 59.0045 64.946C59.0045 64.518 59.0845 64.116 59.2445 63.74C59.4045 63.36 59.6265 63.028 59.9105 62.744C60.1945 62.46 60.5225 62.238 60.8945 62.078C61.2705 61.914 61.6725 61.832 62.1005 61.832C62.5365 61.832 62.9205 61.932 63.2525 62.132C63.5885 62.328 63.8665 62.58 64.0865 62.888L64.0325 62ZM62.1725 66.95C62.5245 66.95 62.8325 66.864 63.0965 66.692C63.3605 66.516 63.5645 66.28 63.7085 65.984C63.8565 65.688 63.9305 65.36 63.9305 65C63.9305 64.636 63.8565 64.306 63.7085 64.01C63.5605 63.714 63.3545 63.48 63.0905 63.308C62.8305 63.132 62.5245 63.044 62.1725 63.044C61.8245 63.044 61.5065 63.132 61.2185 63.308C60.9305 63.484 60.7025 63.72 60.5345 64.016C60.3665 64.312 60.2825 64.64 60.2825 65C60.2825 65.364 60.3685 65.694 60.5405 65.99C60.7165 66.282 60.9465 66.516 61.2305 66.692C61.5185 66.864 61.8325 66.95 62.1725 66.95ZM70.2786 66.296L71.3946 66.902C71.1226 67.282 70.7766 67.586 70.3566 67.814C69.9406 68.042 69.4886 68.156 69.0006 68.156C68.4486 68.156 67.9446 68.014 67.4886 67.73C67.0366 67.446 66.6746 67.066 66.4026 66.59C66.1346 66.11 66.0006 65.58 66.0006 65C66.0006 64.56 66.0786 64.15 66.2346 63.77C66.3906 63.386 66.6046 63.05 66.8766 62.762C67.1526 62.47 67.4726 62.242 67.8366 62.078C68.2006 61.914 68.5886 61.832 69.0006 61.832C69.4886 61.832 69.9406 61.946 70.3566 62.174C70.7766 62.402 71.1226 62.708 71.3946 63.092L70.2786 63.698C70.1106 63.498 69.9146 63.346 69.6906 63.242C69.4666 63.134 69.2366 63.08 69.0006 63.08C68.6726 63.08 68.3746 63.17 68.1066 63.35C67.8426 63.526 67.6326 63.76 67.4766 64.052C67.3246 64.34 67.2486 64.656 67.2486 65C67.2486 65.34 67.3266 65.656 67.4826 65.948C67.6386 66.236 67.8486 66.468 68.1126 66.644C68.3806 66.82 68.6766 66.908 69.0006 66.908C69.2486 66.908 69.4846 66.852 69.7086 66.74C69.9326 66.628 70.1226 66.48 70.2786 66.296ZM77.4555 68H76.0155L74.5395 65.456L73.5735 66.608V68H72.3255V59H73.5735V64.67L75.8055 62H77.4375L75.3915 64.442L77.4555 68ZM85.3307 68.156C84.7627 68.156 84.2287 68.044 83.7287 67.82C83.2287 67.592 82.7887 67.28 82.4087 66.884C82.0327 66.484 81.7367 66.02 81.5207 65.492C81.3087 64.964 81.2027 64.4 81.2027 63.8C81.2027 63.2 81.3087 62.636 81.5207 62.108C81.7367 61.58 82.0327 61.118 82.4087 60.722C82.7887 60.322 83.2287 60.01 83.7287 59.786C84.2287 59.558 84.7627 59.444 85.3307 59.444C86.0107 59.444 86.6367 59.602 87.2087 59.918C87.7807 60.234 88.2547 60.654 88.6307 61.178L87.5207 61.772C87.2607 61.444 86.9387 61.182 86.5547 60.986C86.1707 60.79 85.7627 60.692 85.3307 60.692C84.9307 60.692 84.5567 60.774 84.2087 60.938C83.8607 61.102 83.5547 61.326 83.2907 61.61C83.0267 61.894 82.8207 62.224 82.6727 62.6C82.5247 62.976 82.4507 63.376 82.4507 63.8C82.4507 64.228 82.5247 64.63 82.6727 65.006C82.8207 65.378 83.0267 65.708 83.2907 65.996C83.5587 66.28 83.8667 66.504 84.2147 66.668C84.5627 66.828 84.9347 66.908 85.3307 66.908C85.7707 66.908 86.1807 66.81 86.5607 66.614C86.9447 66.414 87.2647 66.15 87.5207 65.822L88.6307 66.428C88.2547 66.952 87.7807 67.372 87.2087 67.688C86.6367 68 86.0107 68.156 85.3307 68.156ZM94.1497 62H95.3977V68H94.1437L94.0957 67.13C93.9197 67.438 93.6817 67.686 93.3817 67.874C93.0817 68.062 92.7277 68.156 92.3197 68.156C91.8797 68.156 91.4657 68.074 91.0777 67.91C90.6897 67.742 90.3477 67.51 90.0517 67.214C89.7597 66.918 89.5317 66.578 89.3677 66.194C89.2037 65.806 89.1217 65.39 89.1217 64.946C89.1217 64.518 89.2017 64.116 89.3617 63.74C89.5217 63.36 89.7437 63.028 90.0277 62.744C90.3117 62.46 90.6397 62.238 91.0117 62.078C91.3877 61.914 91.7897 61.832 92.2177 61.832C92.6537 61.832 93.0377 61.932 93.3697 62.132C93.7057 62.328 93.9837 62.58 94.2037 62.888L94.1497 62ZM92.2897 66.95C92.6417 66.95 92.9497 66.864 93.2137 66.692C93.4777 66.516 93.6817 66.28 93.8257 65.984C93.9737 65.688 94.0477 65.36 94.0477 65C94.0477 64.636 93.9737 64.306 93.8257 64.01C93.6777 63.714 93.4717 63.48 93.2077 63.308C92.9477 63.132 92.6417 63.044 92.2897 63.044C91.9417 63.044 91.6237 63.132 91.3357 63.308C91.0477 63.484 90.8197 63.72 90.6517 64.016C90.4837 64.312 90.3997 64.64 90.3997 65C90.3997 65.364 90.4857 65.694 90.6577 65.99C90.8337 66.282 91.0637 66.516 91.3477 66.692C91.6357 66.864 91.9497 66.95 92.2897 66.95ZM96.595 68V62H97.843V62.636C98.051 62.388 98.307 62.192 98.611 62.048C98.915 61.904 99.243 61.832 99.595 61.832C99.819 61.832 100.041 61.862 100.261 61.922L99.763 63.182C99.607 63.122 99.451 63.092 99.295 63.092C99.031 63.092 98.789 63.158 98.569 63.29C98.349 63.418 98.173 63.592 98.041 63.812C97.909 64.032 97.843 64.276 97.843 64.544V68H96.595ZM105.347 59H106.595V68H105.347V67.118C105.151 67.43 104.895 67.682 104.579 67.874C104.263 68.062 103.893 68.156 103.469 68.156C103.033 68.156 102.625 68.074 102.245 67.91C101.865 67.746 101.529 67.52 101.237 67.232C100.949 66.94 100.723 66.604 100.559 66.224C100.395 65.844 100.313 65.436 100.313 65C100.313 64.564 100.395 64.156 100.559 63.776C100.723 63.392 100.949 63.056 101.237 62.768C101.529 62.476 101.865 62.248 102.245 62.084C102.625 61.92 103.033 61.838 103.469 61.838C103.893 61.838 104.263 61.934 104.579 62.126C104.895 62.314 105.151 62.562 105.347 62.87V59ZM103.481 66.95C103.833 66.95 104.141 66.864 104.405 66.692C104.669 66.516 104.873 66.28 105.017 65.984C105.165 65.688 105.239 65.36 105.239 65C105.239 64.636 105.165 64.306 105.017 64.01C104.869 63.714 104.663 63.48 104.399 63.308C104.139 63.132 103.833 63.044 103.481 63.044C103.133 63.044 102.815 63.132 102.527 63.308C102.243 63.484 102.015 63.72 101.843 64.016C101.675 64.312 101.591 64.64 101.591 65C101.591 65.364 101.677 65.694 101.849 65.99C102.025 66.282 102.255 66.516 102.539 66.692C102.827 66.864 103.141 66.95 103.481 66.95Z" fill="#808D9E"/>
<path d="M71 31C71 29.8954 71.8954 29 73 29H87C88.1046 29 89 29.8954 89 31V41C89 42.1046 88.1046 43 87 43H73C71.8954 43 71 42.1046 71 41V31Z" stroke="#808D9E" stroke-width="2" stroke-linejoin="round"/>
<circle cx="80" cy="36" r="3" stroke="#808D9E" stroke-width="2" stroke-linecap="round" stroke-linejoin="round"/>
<path d="M85 26L87 26" stroke="#808D9E" stroke-width="2" stroke-linecap="round" stroke-linejoin="round"/>
</svg>
