<svg width="305" height="182" viewBox="0 0 305 182" fill="none" xmlns="http://www.w3.org/2000/svg">
<g clip-path="url(#clip0_356_2824)">
<rect width="305" height="182" rx="16" fill="url(#paint0_linear_356_2824)"/>
<path fill-rule="evenodd" clip-rule="evenodd" d="M143.267 125.035C242.274 182.196 368.873 148.274 426.035 49.2673C483.196 -49.7393 449.274 -176.339 350.267 -233.5C251.261 -290.661 124.661 -256.739 67.5 -157.733C10.3385 -58.7262 44.2607 67.873 143.267 125.035Z" fill="white" fill-opacity="0.08"/>
<path fill-rule="evenodd" clip-rule="evenodd" d="M-97.2279 173.294C-1.80855 228.385 120.204 195.691 175.294 100.272C230.385 4.85269 197.691 -117.16 102.272 -172.25C6.85269 -227.34 -115.16 -194.647 -170.25 -99.2279C-225.34 -3.80855 -192.647 118.204 -97.2279 173.294Z" fill="white" fill-opacity="0.08"/>
<path fill-rule="evenodd" clip-rule="evenodd" d="M-114.611 183.029C-32.1051 230.663 73.3942 202.395 121.029 119.889C168.663 37.3839 140.395 -68.1154 57.8894 -115.75C-24.6161 -163.385 -130.115 -135.116 -177.75 -52.6106C-225.385 29.8949 -197.116 135.394 -114.611 183.029Z" fill="white" fill-opacity="0.08"/>
<path d="M54.235 150.182C53.6657 150.182 53.1477 150.051 52.681 149.79C52.2143 149.524 51.8107 149.158 51.47 148.691C51.134 148.224 50.875 147.685 50.693 147.074C50.511 146.458 50.42 145.8 50.42 145.1C50.42 144.4 50.511 143.744 50.693 143.133C50.875 142.517 51.134 141.976 51.47 141.509C51.8107 141.042 52.2143 140.678 52.681 140.417C53.1477 140.151 53.6657 140.018 54.235 140.018C54.8043 140.018 55.3223 140.151 55.789 140.417C56.2557 140.678 56.6547 141.042 56.986 141.509C57.322 141.976 57.581 142.517 57.763 143.133C57.9497 143.744 58.043 144.4 58.043 145.1C58.043 145.8 57.9497 146.458 57.763 147.074C57.581 147.685 57.322 148.224 56.986 148.691C56.6547 149.158 56.2557 149.524 55.789 149.79C55.3223 150.051 54.8043 150.182 54.235 150.182ZM54.235 148.474C54.7343 148.474 55.1473 148.315 55.474 147.998C55.8007 147.681 56.0433 147.265 56.202 146.752C56.3607 146.239 56.44 145.688 56.44 145.1C56.44 144.479 56.356 143.915 56.188 143.406C56.02 142.893 55.7727 142.484 55.446 142.181C55.1193 141.878 54.7157 141.726 54.235 141.726C53.857 141.726 53.528 141.819 53.248 142.006C52.9727 142.188 52.744 142.438 52.562 142.755C52.38 143.072 52.2447 143.434 52.156 143.84C52.0673 144.241 52.023 144.661 52.023 145.1C52.023 145.683 52.1023 146.234 52.261 146.752C52.4243 147.265 52.6693 147.681 52.996 147.998C53.3273 148.315 53.7403 148.474 54.235 148.474ZM62.0399 150.182C61.4472 150.182 60.9129 150.042 60.4369 149.762C59.9609 149.482 59.5829 149.106 59.3029 148.635C59.0229 148.159 58.8829 147.632 58.8829 147.053H60.5909C60.5909 147.314 60.6516 147.552 60.7729 147.767C60.8989 147.982 61.0716 148.154 61.2909 148.285C61.5102 148.411 61.7599 148.474 62.0399 148.474C62.2966 148.474 62.5346 148.411 62.7539 148.285C62.9779 148.154 63.1576 147.982 63.2929 147.767C63.4282 147.552 63.4959 147.314 63.4959 147.053C63.4959 146.712 63.4049 146.43 63.2229 146.206C63.0409 145.977 62.7866 145.807 62.4599 145.695C62.1379 145.583 61.7622 145.527 61.3329 145.527V144.211C61.9116 144.211 62.3689 144.101 62.7049 143.882C63.0456 143.663 63.2159 143.341 63.2159 142.916C63.2159 142.697 63.1599 142.496 63.0479 142.314C62.9359 142.132 62.7866 141.987 62.5999 141.88C62.4179 141.768 62.2172 141.712 61.9979 141.712C61.7739 141.712 61.5569 141.768 61.3469 141.88C61.1369 141.987 60.9642 142.132 60.8289 142.314C60.6982 142.496 60.6329 142.697 60.6329 142.916H58.9249C58.9249 142.515 59.0066 142.139 59.1699 141.789C59.3332 141.434 59.5572 141.124 59.8419 140.858C60.1312 140.592 60.4579 140.384 60.8219 140.235C61.1906 140.081 61.5756 140.004 61.9769 140.004C62.5042 140.004 62.9919 140.135 63.4399 140.396C63.8879 140.657 64.2472 141.007 64.5179 141.446C64.7886 141.885 64.9239 142.375 64.9239 142.916C64.9239 143.294 64.8352 143.665 64.6579 144.029C64.4806 144.393 64.2286 144.65 63.9019 144.799C64.1866 144.902 64.4246 145.074 64.6159 145.317C64.8072 145.555 64.9519 145.828 65.0499 146.136C65.1526 146.439 65.2039 146.745 65.2039 147.053C65.2039 147.627 65.0592 148.152 64.7699 148.628C64.4806 149.099 64.0956 149.477 63.6149 149.762C63.1389 150.042 62.6139 150.182 62.0399 150.182ZM70.737 140.2L67.895 150.784H66.187L69.029 140.2H70.737ZM71.8608 150V148.474C72.1641 148.245 72.5234 147.963 72.9388 147.627C73.3541 147.286 73.7811 146.92 74.2198 146.528C74.6584 146.131 75.0644 145.735 75.4378 145.338C75.8111 144.941 76.1144 144.563 76.3478 144.204C76.5858 143.845 76.7048 143.537 76.7048 143.28C76.7048 142.995 76.6348 142.736 76.4948 142.503C76.3548 142.265 76.1681 142.076 75.9348 141.936C75.7061 141.796 75.4494 141.726 75.1648 141.726C74.8801 141.726 74.6211 141.796 74.3878 141.936C74.1544 142.076 73.9678 142.265 73.8278 142.503C73.6878 142.736 73.6178 142.995 73.6178 143.28H71.9098C71.9098 142.664 72.0591 142.111 72.3578 141.621C72.6564 141.126 73.0508 140.737 73.5408 140.452C74.0354 140.163 74.5768 140.018 75.1648 140.018C75.7621 140.018 76.3058 140.165 76.7958 140.459C77.2858 140.748 77.6778 141.14 77.9718 141.635C78.2658 142.13 78.4128 142.678 78.4128 143.28C78.4128 143.597 78.3544 143.917 78.2378 144.239C78.1211 144.561 77.9578 144.885 77.7478 145.212C77.5378 145.539 77.2904 145.87 77.0058 146.206C76.7211 146.537 76.4061 146.878 76.0608 147.228C75.7201 147.573 75.3608 147.928 74.9828 148.292H78.4618V150H71.8608ZM83.607 150V147.627H79.435V145.912L83.208 140.2H85.315V145.919H86.141V147.627H85.315V150H83.607ZM81.416 145.912L83.607 145.919L83.6 142.531L81.416 145.912Z" fill="white"/>
<path d="M22.4975 144L20.2115 137.7H20.8775L22.8755 143.208L24.8825 137.7H25.5485L23.258 144H22.4975ZM27.6427 137.7H28.4257L30.7207 144H30.0502L29.5597 142.65H26.5132L26.0227 144H25.3522L27.6427 137.7ZM26.7427 142.02H29.3257L28.0342 138.474L26.7427 142.02ZM31.5615 144V137.7H32.1915V143.37H35.085V144H31.5615ZM36.2141 144V137.7H36.8441V144H36.2141ZM38.0566 144V137.7H40.1401C40.5751 137.7 40.9831 137.782 41.3641 137.947C41.7451 138.109 42.0796 138.336 42.3676 138.627C42.6556 138.915 42.8806 139.249 43.0426 139.63C43.2076 140.008 43.2901 140.415 43.2901 140.85C43.2901 141.285 43.2076 141.693 43.0426 142.074C42.8806 142.452 42.6556 142.786 42.3676 143.077C42.0796 143.365 41.7451 143.592 41.3641 143.757C40.9831 143.919 40.5751 144 40.1401 144H38.0566ZM38.6866 143.37H40.1401C40.4881 143.37 40.8136 143.305 41.1166 143.176C41.4226 143.044 41.6911 142.863 41.9221 142.632C42.1531 142.401 42.3331 142.134 42.4621 141.831C42.5941 141.525 42.6601 141.198 42.6601 140.85C42.6601 140.502 42.5941 140.176 42.4621 139.873C42.3331 139.567 42.1516 139.299 41.9176 139.068C41.6866 138.837 41.4196 138.657 41.1166 138.528C40.8136 138.396 40.4881 138.33 40.1401 138.33H38.6866V143.37ZM25.3055 147.7V148.33H23.1455V154H22.5155V148.33H20.36V147.7H25.3055ZM30.1464 147.7H30.7764V154H30.1464V150.94H26.8389V154H26.2089V147.7H26.8389V150.31H30.1464V147.7ZM31.8603 154V147.7H33.9978C34.3338 147.7 34.6368 147.782 34.9068 147.947C35.1768 148.109 35.3913 148.33 35.5503 148.609C35.7093 148.885 35.7888 149.195 35.7888 149.54C35.7888 149.849 35.7258 150.13 35.5998 150.382C35.4738 150.634 35.3013 150.842 35.0823 151.007C34.8663 151.172 34.6218 151.282 34.3488 151.336L35.8878 154H35.1588L33.6423 151.385H32.4903V154H31.8603ZM32.4903 150.755H33.9438C34.1658 150.755 34.3683 150.701 34.5513 150.593C34.7373 150.482 34.8843 150.334 34.9923 150.148C35.1033 149.959 35.1588 149.746 35.1588 149.509C35.1588 149.272 35.1033 149.06 34.9923 148.874C34.8843 148.685 34.7373 148.537 34.5513 148.429C34.3683 148.318 34.1658 148.262 33.9438 148.262H32.4903V150.755ZM39.3224 154.117C38.8184 154.117 38.3834 153.994 38.0174 153.748C37.6514 153.502 37.3694 153.172 37.1714 152.758C36.9764 152.341 36.8789 151.879 36.8789 151.372V147.7H37.5089V151.372C37.5089 151.756 37.5794 152.108 37.7204 152.429C37.8614 152.75 38.0669 153.007 38.3369 153.199C38.6069 153.391 38.9354 153.487 39.3224 153.487C39.7184 153.487 40.0499 153.391 40.3169 153.199C40.5869 153.004 40.7909 152.746 40.9289 152.425C41.0669 152.104 41.1359 151.753 41.1359 151.372V147.7H41.7659V151.372C41.7659 151.753 41.7089 152.11 41.5949 152.443C41.4839 152.773 41.3219 153.064 41.1089 153.316C40.8989 153.568 40.6424 153.764 40.3394 153.905C40.0394 154.046 39.7004 154.117 39.3224 154.117Z" fill="white"/>
<path d="M20.64 40V38.336L27.456 30.464H20.64V28.8H29.696V30.464L22.88 38.336H29.696V40H20.64ZM38.4881 34.984V40H36.8241V35.392C36.8241 35.0347 36.7361 34.7093 36.5601 34.416C36.3895 34.1227 36.1575 33.8907 35.8641 33.72C35.5761 33.544 35.2508 33.456 34.8881 33.456C34.5361 33.456 34.2135 33.544 33.9201 33.72C33.6268 33.8907 33.3921 34.1227 33.2161 34.416C33.0401 34.7093 32.9521 35.0347 32.9521 35.392V40H31.2881V28H32.9521V32.848C33.2295 32.5173 33.5708 32.256 33.9761 32.064C34.3815 31.872 34.8188 31.776 35.2881 31.776C35.8801 31.776 36.4188 31.92 36.9041 32.208C37.3895 32.496 37.7735 32.8827 38.0561 33.368C38.3441 33.8533 38.4881 34.392 38.4881 34.984ZM46.1528 32H47.8168V40H46.1448L46.0808 38.84C45.8461 39.2507 45.5288 39.5813 45.1288 39.832C44.7288 40.0827 44.2568 40.208 43.7128 40.208C43.1261 40.208 42.5741 40.0987 42.0568 39.88C41.5394 39.656 41.0834 39.3467 40.6888 38.952C40.2994 38.5573 39.9954 38.104 39.7768 37.592C39.5581 37.0747 39.4488 36.52 39.4488 35.928C39.4488 35.3573 39.5554 34.8213 39.7688 34.32C39.9821 33.8133 40.2781 33.3707 40.6568 32.992C41.0354 32.6133 41.4728 32.3173 41.9688 32.104C42.4701 31.8853 43.0061 31.776 43.5768 31.776C44.1581 31.776 44.6701 31.9093 45.1128 32.176C45.5608 32.4373 45.9314 32.7733 46.2248 33.184L46.1528 32ZM43.6727 38.6C44.1421 38.6 44.5528 38.4853 44.9048 38.256C45.2568 38.0213 45.5288 37.7067 45.7208 37.312C45.9181 36.9173 46.0168 36.48 46.0168 36C46.0168 35.5147 45.9181 35.0747 45.7208 34.68C45.5234 34.2853 45.2488 33.9733 44.8968 33.744C44.5501 33.5093 44.1421 33.392 43.6727 33.392C43.2088 33.392 42.7848 33.5093 42.4008 33.744C42.0168 33.9787 41.7128 34.2933 41.4888 34.688C41.2648 35.0827 41.1528 35.52 41.1528 36C41.1528 36.4853 41.2674 36.9253 41.4968 37.32C41.7314 37.7093 42.0381 38.0213 42.4168 38.256C42.8008 38.4853 43.2194 38.6 43.6727 38.6ZM51.4691 30.184V32H53.7251V33.664H51.4691V40H49.8051V33.664H48.8531V32H49.8051V30.184C49.8051 29.7467 49.9118 29.3493 50.1251 28.992C50.3385 28.6293 50.6238 28.3413 50.9811 28.128C51.3438 27.9147 51.7465 27.808 52.1891 27.808C52.5091 27.808 52.8211 27.872 53.1251 28C53.4291 28.128 53.7011 28.3253 53.9411 28.592L52.7491 29.768C52.6905 29.672 52.6078 29.6 52.5011 29.552C52.3998 29.4987 52.2958 29.472 52.1891 29.472C51.9918 29.472 51.8211 29.5413 51.6771 29.68C51.5385 29.8187 51.4691 29.9867 51.4691 30.184ZM54.96 32H56.624V40H54.96V32ZM55.808 30.84C55.552 30.84 55.3387 30.7573 55.168 30.592C54.9973 30.4267 54.912 30.2187 54.912 29.968C54.912 29.7227 54.9973 29.5173 55.168 29.352C55.3387 29.1813 55.5493 29.096 55.8 29.096C56.0453 29.096 56.2533 29.1813 56.424 29.352C56.5947 29.5173 56.68 29.7227 56.68 29.968C56.68 30.2187 56.5947 30.4267 56.424 30.592C56.2587 30.7573 56.0533 30.84 55.808 30.84ZM58.4756 40V32H60.1396V32.848C60.417 32.5173 60.7583 32.256 61.1636 32.064C61.569 31.872 62.0063 31.776 62.4756 31.776C62.7743 31.776 63.0703 31.816 63.3636 31.896L62.6996 33.576C62.4916 33.496 62.2836 33.456 62.0756 33.456C61.7236 33.456 61.401 33.544 61.1076 33.72C60.8143 33.8907 60.5796 34.1227 60.4036 34.416C60.2276 34.7093 60.1396 35.0347 60.1396 35.392V40H58.4756ZM70.1371 32H71.8011V40H70.1291L70.0651 38.84C69.8305 39.2507 69.5131 39.5813 69.1131 39.832C68.7131 40.0827 68.2411 40.208 67.6971 40.208C67.1105 40.208 66.5585 40.0987 66.0411 39.88C65.5238 39.656 65.0678 39.3467 64.6731 38.952C64.2838 38.5573 63.9798 38.104 63.7611 37.592C63.5425 37.0747 63.4331 36.52 63.4331 35.928C63.4331 35.3573 63.5398 34.8213 63.7531 34.32C63.9665 33.8133 64.2625 33.3707 64.6411 32.992C65.0198 32.6133 65.4571 32.3173 65.9531 32.104C66.4545 31.8853 66.9905 31.776 67.5611 31.776C68.1425 31.776 68.6545 31.9093 69.0971 32.176C69.5451 32.4373 69.9158 32.7733 70.2091 33.184L70.1371 32ZM67.6571 38.6C68.1265 38.6 68.5371 38.4853 68.8891 38.256C69.2411 38.0213 69.5131 37.7067 69.7051 37.312C69.9025 36.9173 70.0011 36.48 70.0011 36C70.0011 35.5147 69.9025 35.0747 69.7051 34.68C69.5078 34.2853 69.2331 33.9733 68.8811 33.744C68.5345 33.5093 68.1265 33.392 67.6571 33.392C67.1931 33.392 66.7691 33.5093 66.3851 33.744C66.0011 33.9787 65.6971 34.2933 65.4731 34.688C65.2491 35.0827 65.1371 35.52 65.1371 36C65.1371 36.4853 65.2518 36.9253 65.4811 37.32C65.7158 37.7093 66.0225 38.0213 66.4011 38.256C66.7851 38.4853 67.2038 38.6 67.6571 38.6ZM80.9933 28.8H82.9373L87.0093 40H85.2493L84.4733 37.872H79.4573L78.6893 40H76.9213L80.9933 28.8ZM80.0733 36.208H83.8573L81.9613 31.008L80.0733 36.208ZM94.722 33.664L90.274 38.336H94.722V40H87.89V38.336L92.338 33.664H87.89V32H94.722V33.664ZM102.403 32H104.067V40H102.395L102.331 38.84C102.096 39.2507 101.779 39.5813 101.379 39.832C100.979 40.0827 100.507 40.208 99.9628 40.208C99.3761 40.208 98.8241 40.0987 98.3068 39.88C97.7894 39.656 97.3334 39.3467 96.9388 38.952C96.5494 38.5573 96.2454 38.104 96.0268 37.592C95.8081 37.0747 95.6988 36.52 95.6988 35.928C95.6988 35.3573 95.8054 34.8213 96.0188 34.32C96.2321 33.8133 96.5281 33.3707 96.9068 32.992C97.2854 32.6133 97.7228 32.3173 98.2188 32.104C98.7201 31.8853 99.2561 31.776 99.8268 31.776C100.408 31.776 100.92 31.9093 101.363 32.176C101.811 32.4373 102.181 32.7733 102.475 33.184L102.403 32ZM99.9227 38.6C100.392 38.6 100.803 38.4853 101.155 38.256C101.507 38.0213 101.779 37.7067 101.971 37.312C102.168 36.9173 102.267 36.48 102.267 36C102.267 35.5147 102.168 35.0747 101.971 34.68C101.773 34.2853 101.499 33.9733 101.147 33.744C100.8 33.5093 100.392 33.392 99.9227 33.392C99.4588 33.392 99.0348 33.5093 98.6508 33.744C98.2668 33.9787 97.9628 34.2933 97.7388 34.688C97.5148 35.0827 97.4028 35.52 97.4028 36C97.4028 36.4853 97.5174 36.9253 97.7468 37.32C97.9814 37.7093 98.2881 38.0213 98.6668 38.256C99.0508 38.4853 99.4694 38.6 99.9227 38.6ZM105.726 40V28H107.39V40H105.726ZM112.714 40.208C111.978 40.208 111.306 40.0187 110.698 39.64C110.096 39.2613 109.613 38.7547 109.25 38.12C108.893 37.48 108.714 36.7733 108.714 36C108.714 35.4133 108.818 34.8667 109.026 34.36C109.234 33.848 109.52 33.4 109.882 33.016C110.25 32.6267 110.677 32.3227 111.162 32.104C111.648 31.8853 112.165 31.776 112.714 31.776C113.328 31.776 113.89 31.904 114.402 32.16C114.914 32.4107 115.352 32.76 115.714 33.208C116.077 33.6507 116.344 34.1627 116.514 34.744C116.685 35.32 116.736 35.9333 116.666 36.584H110.498C110.568 36.952 110.701 37.2853 110.898 37.584C111.101 37.8773 111.357 38.1093 111.666 38.28C111.981 38.4507 112.33 38.5387 112.714 38.544C113.12 38.544 113.488 38.4427 113.818 38.24C114.154 38.0373 114.429 37.7573 114.642 37.4L116.33 37.792C116.01 38.5013 115.528 39.0827 114.882 39.536C114.237 39.984 113.514 40.208 112.714 40.208ZM110.442 35.312H114.986C114.933 34.928 114.797 34.5813 114.578 34.272C114.365 33.9573 114.096 33.7093 113.77 33.528C113.45 33.3413 113.098 33.248 112.714 33.248C112.336 33.248 111.984 33.3387 111.658 33.52C111.338 33.7013 111.072 33.9493 110.858 34.264C110.65 34.5733 110.512 34.9227 110.442 35.312ZM124.2 32H125.864V40H124.192L124.128 38.84C123.893 39.2507 123.576 39.5813 123.176 39.832C122.776 40.0827 122.304 40.208 121.76 40.208C121.173 40.208 120.621 40.0987 120.104 39.88C119.586 39.656 119.13 39.3467 118.736 38.952C118.346 38.5573 118.042 38.104 117.824 37.592C117.605 37.0747 117.496 36.52 117.496 35.928C117.496 35.3573 117.602 34.8213 117.816 34.32C118.029 33.8133 118.325 33.3707 118.704 32.992C119.082 32.6133 119.52 32.3173 120.016 32.104C120.517 31.8853 121.053 31.776 121.624 31.776C122.205 31.776 122.717 31.9093 123.16 32.176C123.608 32.4373 123.978 32.7733 124.272 33.184L124.2 32ZM121.72 38.6C122.189 38.6 122.6 38.4853 122.952 38.256C123.304 38.0213 123.576 37.7067 123.768 37.312C123.965 36.9173 124.064 36.48 124.064 36C124.064 35.5147 123.965 35.0747 123.768 34.68C123.57 34.2853 123.296 33.9733 122.944 33.744C122.597 33.5093 122.189 33.392 121.72 33.392C121.256 33.392 120.832 33.5093 120.448 33.744C120.064 33.9787 119.76 34.2933 119.536 34.688C119.312 35.0827 119.2 35.52 119.2 36C119.2 36.4853 119.314 36.9253 119.544 37.32C119.778 37.7093 120.085 38.0213 120.464 38.256C120.848 38.4853 121.266 38.6 121.72 38.6Z" fill="white"/>
<path d="M22.952 110.98L21.32 109.792L22.532 108.136L20.6 107.524L21.2 105.592L23.156 106.228V104.2H25.172V106.228L27.104 105.592L27.728 107.524L25.772 108.136L26.984 109.792L25.352 110.98L24.164 109.312L22.952 110.98ZM31.6473 110.98L30.0153 109.792L31.2273 108.136L29.2953 107.524L29.8953 105.592L31.8513 106.228V104.2H33.8673V106.228L35.7993 105.592L36.4233 107.524L34.4673 108.136L35.6793 109.792L34.0473 110.98L32.8593 109.312L31.6473 110.98ZM40.3426 110.98L38.7106 109.792L39.9226 108.136L37.9906 107.524L38.5906 105.592L40.5466 106.228V104.2H42.5626V106.228L44.4946 105.592L45.1186 107.524L43.1626 108.136L44.3746 109.792L42.7426 110.98L41.5546 109.312L40.3426 110.98ZM49.0379 110.98L47.4059 109.792L48.6179 108.136L46.6859 107.524L47.2859 105.592L49.2419 106.228V104.2H51.2579V106.228L53.1899 105.592L53.8139 107.524L51.8579 108.136L53.0699 109.792L51.4379 110.98L50.2499 109.312L49.0379 110.98ZM63.4989 110.98L61.8669 109.792L63.0789 108.136L61.1469 107.524L61.7469 105.592L63.7029 106.228V104.2H65.7189V106.228L67.6509 105.592L68.2749 107.524L66.3189 108.136L67.5309 109.792L65.8989 110.98L64.7109 109.312L63.4989 110.98ZM72.1942 110.98L70.5622 109.792L71.7742 108.136L69.8422 107.524L70.4422 105.592L72.3982 106.228V104.2H74.4142V106.228L76.3462 105.592L76.9702 107.524L75.0142 108.136L76.2262 109.792L74.5942 110.98L73.4062 109.312L72.1942 110.98ZM80.8895 110.98L79.2575 109.792L80.4695 108.136L78.5375 107.524L79.1375 105.592L81.0935 106.228V104.2H83.1095V106.228L85.0415 105.592L85.6655 107.524L83.7095 108.136L84.9215 109.792L83.2895 110.98L82.1015 109.312L80.8895 110.98ZM89.5848 110.98L87.9528 109.792L89.1648 108.136L87.2328 107.524L87.8328 105.592L89.7888 106.228V104.2H91.8048V106.228L93.7368 105.592L94.3608 107.524L92.4048 108.136L93.6168 109.792L91.9848 110.98L90.7968 109.312L89.5848 110.98ZM104.046 110.98L102.414 109.792L103.626 108.136L101.694 107.524L102.294 105.592L104.25 106.228V104.2H106.266V106.228L108.198 105.592L108.822 107.524L106.866 108.136L108.078 109.792L106.446 110.98L105.258 109.312L104.046 110.98ZM112.741 110.98L111.109 109.792L112.321 108.136L110.389 107.524L110.989 105.592L112.945 106.228V104.2H114.961V106.228L116.893 105.592L117.517 107.524L115.561 108.136L116.773 109.792L115.141 110.98L113.953 109.312L112.741 110.98ZM121.436 110.98L119.804 109.792L121.016 108.136L119.084 107.524L119.684 105.592L121.64 106.228V104.2H123.656V106.228L125.588 105.592L126.212 107.524L124.256 108.136L125.468 109.792L123.836 110.98L122.648 109.312L121.436 110.98ZM130.132 110.98L128.5 109.792L129.712 108.136L127.78 107.524L128.38 105.592L130.336 106.228V104.2H132.352V106.228L134.284 105.592L134.908 107.524L132.952 108.136L134.164 109.792L132.532 110.98L131.344 109.312L130.132 110.98ZM148.901 121.312C147.925 121.312 147.037 121.088 146.237 120.64C145.437 120.184 144.745 119.556 144.161 118.756C143.585 117.956 143.141 117.032 142.829 115.984C142.517 114.928 142.361 113.8 142.361 112.6C142.361 111.4 142.517 110.276 142.829 109.228C143.141 108.172 143.585 107.244 144.161 106.444C144.745 105.644 145.437 105.02 146.237 104.572C147.037 104.116 147.925 103.888 148.901 103.888C149.877 103.888 150.765 104.116 151.565 104.572C152.365 105.02 153.049 105.644 153.617 106.444C154.193 107.244 154.637 108.172 154.949 109.228C155.269 110.276 155.429 111.4 155.429 112.6C155.429 113.8 155.269 114.928 154.949 115.984C154.637 117.032 154.193 117.956 153.617 118.756C153.049 119.556 152.365 120.184 151.565 120.64C150.765 121.088 149.877 121.312 148.901 121.312ZM148.901 118.384C149.757 118.384 150.465 118.112 151.025 117.568C151.585 117.024 152.001 116.312 152.273 115.432C152.545 114.552 152.681 113.608 152.681 112.6C152.681 111.536 152.537 110.568 152.249 109.696C151.961 108.816 151.537 108.116 150.977 107.596C150.417 107.076 149.725 106.816 148.901 106.816C148.253 106.816 147.689 106.976 147.209 107.296C146.737 107.608 146.345 108.036 146.033 108.58C145.721 109.124 145.489 109.744 145.337 110.44C145.185 111.128 145.109 111.848 145.109 112.6C145.109 113.6 145.245 114.544 145.517 115.432C145.797 116.312 146.217 117.024 146.777 117.568C147.345 118.112 148.053 118.384 148.901 118.384ZM162.28 121.312C161.264 121.312 160.348 121.072 159.532 120.592C158.716 120.112 158.068 119.468 157.588 118.66C157.108 117.844 156.868 116.94 156.868 115.948H159.796C159.796 116.396 159.9 116.804 160.108 117.172C160.324 117.54 160.62 117.836 160.996 118.06C161.372 118.276 161.8 118.384 162.28 118.384C162.72 118.384 163.128 118.276 163.504 118.06C163.888 117.836 164.196 117.54 164.428 117.172C164.66 116.804 164.776 116.396 164.776 115.948C164.776 115.364 164.62 114.88 164.308 114.496C163.996 114.104 163.56 113.812 163 113.62C162.448 113.428 161.804 113.332 161.068 113.332V111.076C162.06 111.076 162.844 110.888 163.42 110.512C164.004 110.136 164.296 109.584 164.296 108.856C164.296 108.48 164.2 108.136 164.008 107.824C163.816 107.512 163.56 107.264 163.24 107.08C162.928 106.888 162.584 106.792 162.208 106.792C161.824 106.792 161.452 106.888 161.092 107.08C160.732 107.264 160.436 107.512 160.204 107.824C159.98 108.136 159.868 108.48 159.868 108.856H156.94C156.94 108.168 157.08 107.524 157.36 106.924C157.64 106.316 158.024 105.784 158.512 105.328C159.008 104.872 159.568 104.516 160.192 104.26C160.824 103.996 161.484 103.864 162.172 103.864C163.076 103.864 163.912 104.088 164.68 104.536C165.448 104.984 166.064 105.584 166.528 106.336C166.992 107.088 167.224 107.928 167.224 108.856C167.224 109.504 167.072 110.14 166.768 110.764C166.464 111.388 166.032 111.828 165.472 112.084C165.96 112.26 166.368 112.556 166.696 112.972C167.024 113.38 167.272 113.848 167.44 114.376C167.616 114.896 167.704 115.42 167.704 115.948C167.704 116.932 167.456 117.832 166.96 118.648C166.464 119.456 165.804 120.104 164.98 120.592C164.164 121.072 163.264 121.312 162.28 121.312ZM169.39 121V118.384C169.91 117.992 170.526 117.508 171.238 116.932C171.95 116.348 172.682 115.72 173.434 115.048C174.186 114.368 174.882 113.688 175.522 113.008C176.162 112.328 176.682 111.68 177.082 111.064C177.49 110.448 177.694 109.92 177.694 109.48C177.694 108.992 177.574 108.548 177.334 108.148C177.094 107.74 176.774 107.416 176.374 107.176C175.982 106.936 175.542 106.816 175.054 106.816C174.566 106.816 174.122 106.936 173.722 107.176C173.322 107.416 173.002 107.74 172.762 108.148C172.522 108.548 172.402 108.992 172.402 109.48H169.474C169.474 108.424 169.73 107.476 170.242 106.636C170.754 105.788 171.43 105.12 172.27 104.632C173.118 104.136 174.046 103.888 175.054 103.888C176.078 103.888 177.01 104.14 177.85 104.644C178.69 105.14 179.362 105.812 179.866 106.66C180.37 107.508 180.622 108.448 180.622 109.48C180.622 110.024 180.522 110.572 180.322 111.124C180.122 111.676 179.842 112.232 179.482 112.792C179.122 113.352 178.698 113.92 178.21 114.496C177.722 115.064 177.182 115.648 176.59 116.248C176.006 116.84 175.39 117.448 174.742 118.072H180.706V121H169.39ZM185.621 121L188.849 115.42C188.057 115.468 187.301 115.36 186.581 115.096C185.869 114.832 185.233 114.44 184.673 113.92C184.113 113.4 183.669 112.784 183.341 112.072C183.021 111.36 182.861 110.588 182.861 109.756C182.861 108.948 183.013 108.192 183.317 107.488C183.621 106.776 184.041 106.152 184.577 105.616C185.121 105.072 185.745 104.648 186.449 104.344C187.161 104.04 187.925 103.888 188.741 103.888C189.805 103.888 190.777 104.152 191.657 104.68C192.545 105.208 193.253 105.916 193.781 106.804C194.317 107.692 194.585 108.676 194.585 109.756C194.585 110.292 194.517 110.8 194.381 111.28C194.253 111.752 194.049 112.232 193.769 112.72L189.005 121H185.621ZM188.717 112.696C189.293 112.696 189.801 112.556 190.241 112.276C190.689 111.996 191.037 111.632 191.285 111.184C191.533 110.736 191.657 110.256 191.657 109.744C191.657 109.184 191.521 108.684 191.249 108.244C190.977 107.796 190.617 107.448 190.169 107.2C189.721 106.944 189.245 106.816 188.741 106.816C188.165 106.816 187.653 106.956 187.205 107.236C186.765 107.508 186.417 107.868 186.161 108.316C185.905 108.764 185.777 109.24 185.777 109.744C185.777 110.28 185.905 110.772 186.161 111.22C186.425 111.668 186.777 112.028 187.217 112.3C187.665 112.564 188.165 112.696 188.717 112.696Z" fill="#FDFDFD"/>
<rect x="253.5" y="134.5" width="31" height="23" rx="3.5" fill="#F6F7FA" stroke="#E6E9ED"/>
<path fill-rule="evenodd" clip-rule="evenodd" d="M269.198 151.074C268.048 152.067 266.555 152.667 264.924 152.667C261.284 152.667 258.333 149.682 258.333 146C258.333 142.318 261.284 139.333 264.924 139.333C266.555 139.333 268.048 139.933 269.198 140.926C270.349 139.933 271.842 139.333 273.473 139.333C277.113 139.333 280.063 142.318 280.063 146C280.063 149.682 277.113 152.667 273.473 152.667C271.842 152.667 270.349 152.067 269.198 151.074Z" fill="#ED0006"/>
<path fill-rule="evenodd" clip-rule="evenodd" d="M269.198 151.074C270.615 149.851 271.514 148.032 271.514 146C271.514 143.968 270.615 142.149 269.198 140.926C270.349 139.933 271.842 139.333 273.473 139.333C277.113 139.333 280.063 142.318 280.063 146C280.063 149.682 277.113 152.667 273.473 152.667C271.842 152.667 270.349 152.067 269.198 151.074Z" fill="#F9A000"/>
<path fill-rule="evenodd" clip-rule="evenodd" d="M269.198 140.926C270.615 142.149 271.514 143.968 271.514 146C271.514 148.032 270.615 149.851 269.198 151.074C267.781 149.851 266.883 148.032 266.883 146C266.883 143.968 267.781 142.149 269.198 140.926Z" fill="#FF5E00"/>
<path d="M281 35C281.552 35 282 34.5523 282 34C282 33.4477 281.552 33 281 33C280.448 33 280 33.4477 280 34C280 34.5523 280.448 35 281 35Z" stroke="white" stroke-width="2" stroke-linecap="round" stroke-linejoin="round"/>
<path d="M281 28C281.552 28 282 27.5523 282 27C282 26.4477 281.552 26 281 26C280.448 26 280 26.4477 280 27C280 27.5523 280.448 28 281 28Z" stroke="white" stroke-width="2" stroke-linecap="round" stroke-linejoin="round"/>
<path d="M281 42C281.552 42 282 41.5523 282 41C282 40.4477 281.552 40 281 40C280.448 40 280 40.4477 280 41C280 41.5523 280.448 42 281 42Z" stroke="white" stroke-width="2" stroke-linecap="round" stroke-linejoin="round"/>
</g>
<defs>
<linearGradient id="paint0_linear_356_2824" x1="-11.8358" y1="3.99999" x2="353.218" y2="187.015" gradientUnits="userSpaceOnUse">
<stop stop-color="#9B51E0"/>
<stop offset="1" stop-color="#6A77F0"/>
</linearGradient>
<clipPath id="clip0_356_2824">
<rect width="305" height="182" rx="16" fill="white"/>
</clipPath>
</defs>
</svg>
