<svg width="56" height="25" viewBox="0 0 56 25" fill="none" xmlns="http://www.w3.org/2000/svg">
<rect width="56" height="25" rx="4" fill="#F8F8FB"/>
<path d="M14.608 16.656C14.04 16.656 13.506 16.544 13.006 16.32C12.506 16.092 12.066 15.78 11.686 15.384C11.31 14.984 11.014 14.52 10.798 13.992C10.586 13.464 10.48 12.9 10.48 12.3C10.48 11.7 10.586 11.136 10.798 10.608C11.014 10.08 11.31 9.618 11.686 9.222C12.066 8.822 12.506 8.51 13.006 8.286C13.506 8.058 14.04 7.944 14.608 7.944C15.288 7.944 15.914 8.102 16.486 8.418C17.058 8.734 17.532 9.154 17.908 9.678L16.798 10.272C16.538 9.944 16.216 9.682 15.832 9.486C15.448 9.29 15.04 9.192 14.608 9.192C14.208 9.192 13.834 9.274 13.486 9.438C13.138 9.602 12.832 9.826 12.568 10.11C12.304 10.394 12.098 10.724 11.95 11.1C11.802 11.476 11.728 11.876 11.728 12.3C11.728 12.728 11.802 13.13 11.95 13.506C12.098 13.878 12.304 14.208 12.568 14.496C12.836 14.78 13.144 15.004 13.492 15.168C13.84 15.328 14.212 15.408 14.608 15.408C15.048 15.408 15.458 15.31 15.838 15.114C16.222 14.914 16.542 14.65 16.798 14.322L17.908 14.928C17.532 15.452 17.058 15.872 16.486 16.188C15.914 16.5 15.288 16.656 14.608 16.656ZM19.0755 16.5V7.5H20.3235V16.5H19.0755ZM26.345 10.5H27.593V16.5H26.339L26.291 15.63C26.115 15.938 25.877 16.186 25.577 16.374C25.277 16.562 24.923 16.656 24.515 16.656C24.075 16.656 23.661 16.574 23.273 16.41C22.885 16.242 22.543 16.01 22.247 15.714C21.955 15.418 21.727 15.078 21.563 14.694C21.399 14.306 21.317 13.89 21.317 13.446C21.317 13.018 21.397 12.616 21.557 12.24C21.717 11.86 21.939 11.528 22.223 11.244C22.507 10.96 22.835 10.738 23.207 10.578C23.583 10.414 23.985 10.332 24.413 10.332C24.849 10.332 25.233 10.432 25.565 10.632C25.901 10.828 26.179 11.08 26.399 11.388L26.345 10.5ZM24.485 15.45C24.837 15.45 25.145 15.364 25.409 15.192C25.673 15.016 25.877 14.78 26.021 14.484C26.169 14.188 26.243 13.86 26.243 13.5C26.243 13.136 26.169 12.806 26.021 12.51C25.873 12.214 25.667 11.98 25.403 11.808C25.143 11.632 24.837 11.544 24.485 11.544C24.137 11.544 23.819 11.632 23.531 11.808C23.243 11.984 23.015 12.22 22.847 12.516C22.679 12.812 22.595 13.14 22.595 13.5C22.595 13.864 22.681 14.194 22.853 14.49C23.029 14.782 23.259 15.016 23.543 15.192C23.831 15.364 24.145 15.45 24.485 15.45ZM30.5903 16.614C30.2743 16.594 29.9663 16.53 29.6663 16.422C29.3663 16.314 29.1023 16.168 28.8743 15.984C28.6503 15.796 28.4823 15.576 28.3703 15.324L29.4323 14.868C29.4843 14.976 29.5743 15.082 29.7023 15.186C29.8343 15.29 29.9883 15.376 30.1643 15.444C30.3403 15.508 30.5243 15.54 30.7163 15.54C30.9043 15.54 31.0783 15.514 31.2383 15.462C31.4023 15.406 31.5363 15.322 31.6403 15.21C31.7443 15.098 31.7963 14.964 31.7963 14.808C31.7963 14.632 31.7363 14.496 31.6163 14.4C31.5003 14.3 31.3543 14.224 31.1783 14.172C31.0023 14.12 30.8263 14.07 30.6503 14.022C30.2583 13.934 29.8983 13.814 29.5703 13.662C29.2463 13.506 28.9883 13.308 28.7963 13.068C28.6043 12.824 28.5083 12.526 28.5083 12.174C28.5083 11.79 28.6123 11.458 28.8203 11.178C29.0283 10.894 29.3003 10.676 29.6363 10.524C29.9763 10.372 30.3383 10.296 30.7223 10.296C31.2023 10.296 31.6423 10.398 32.0423 10.602C32.4423 10.806 32.7483 11.086 32.9603 11.442L31.9703 12.03C31.9103 11.91 31.8203 11.802 31.7003 11.706C31.5803 11.61 31.4443 11.534 31.2923 11.478C31.1403 11.418 30.9823 11.384 30.8183 11.376C30.6143 11.368 30.4243 11.392 30.2483 11.448C30.0763 11.5 29.9383 11.584 29.8343 11.7C29.7303 11.816 29.6783 11.964 29.6783 12.144C29.6783 12.32 29.7403 12.452 29.8643 12.54C29.9883 12.624 30.1443 12.692 30.3323 12.744C30.5243 12.796 30.7203 12.854 30.9203 12.918C31.2763 13.03 31.6103 13.168 31.9223 13.332C32.2343 13.492 32.4863 13.69 32.6783 13.926C32.8703 14.162 32.9623 14.45 32.9543 14.79C32.9543 15.166 32.8403 15.496 32.6123 15.78C32.3883 16.064 32.0963 16.28 31.7363 16.428C31.3763 16.576 30.9943 16.638 30.5903 16.614ZM35.7817 16.614C35.4657 16.594 35.1577 16.53 34.8577 16.422C34.5577 16.314 34.2937 16.168 34.0657 15.984C33.8417 15.796 33.6737 15.576 33.5617 15.324L34.6237 14.868C34.6757 14.976 34.7657 15.082 34.8937 15.186C35.0257 15.29 35.1797 15.376 35.3557 15.444C35.5317 15.508 35.7157 15.54 35.9077 15.54C36.0957 15.54 36.2697 15.514 36.4297 15.462C36.5937 15.406 36.7277 15.322 36.8317 15.21C36.9357 15.098 36.9877 14.964 36.9877 14.808C36.9877 14.632 36.9277 14.496 36.8077 14.4C36.6917 14.3 36.5457 14.224 36.3697 14.172C36.1937 14.12 36.0177 14.07 35.8417 14.022C35.4497 13.934 35.0897 13.814 34.7617 13.662C34.4377 13.506 34.1797 13.308 33.9877 13.068C33.7957 12.824 33.6997 12.526 33.6997 12.174C33.6997 11.79 33.8037 11.458 34.0117 11.178C34.2197 10.894 34.4917 10.676 34.8277 10.524C35.1677 10.372 35.5297 10.296 35.9137 10.296C36.3937 10.296 36.8337 10.398 37.2337 10.602C37.6337 10.806 37.9397 11.086 38.1517 11.442L37.1617 12.03C37.1017 11.91 37.0117 11.802 36.8917 11.706C36.7717 11.61 36.6357 11.534 36.4837 11.478C36.3317 11.418 36.1737 11.384 36.0097 11.376C35.8057 11.368 35.6157 11.392 35.4397 11.448C35.2677 11.5 35.1297 11.584 35.0257 11.7C34.9217 11.816 34.8697 11.964 34.8697 12.144C34.8697 12.32 34.9317 12.452 35.0557 12.54C35.1797 12.624 35.3357 12.692 35.5237 12.744C35.7157 12.796 35.9117 12.854 36.1117 12.918C36.4677 13.03 36.8017 13.168 37.1137 13.332C37.4257 13.492 37.6777 13.69 37.8697 13.926C38.0617 14.162 38.1537 14.45 38.1457 14.79C38.1457 15.166 38.0317 15.496 37.8037 15.78C37.5797 16.064 37.2877 16.28 36.9277 16.428C36.5677 16.576 36.1857 16.638 35.7817 16.614ZM42.8179 16.5V9.348H41.8159L42.1579 8.1H44.0659V16.5H42.8179Z" fill="#257CFF"/>
</svg>
