<svg width="65" height="65" viewBox="0 0 65 65" fill="none" xmlns="http://www.w3.org/2000/svg">
<rect x="0.5" y="0.5" width="64" height="64" rx="32" fill="white" stroke="#E9ECF2"/>
<path d="M23 40.7692V51H45V41C45 38.7909 43.2091 37 41 37H26.7692C24.6875 37 23 38.6875 23 40.7692Z" fill="#BFE9EF"/>
<path d="M21 40.7692V51H43V41C43 38.7909 41.2091 37 39 37H24.7692C22.6875 37 21 38.6875 21 40.7692Z" fill="#F2F3F7"/>
<circle cx="40" cy="45" r="2" fill="#CDCDD4"/>
<path d="M40 44V37C40 35.3431 38.6569 34 37 34H28C26.3431 34 25 35.3431 25 37V42" stroke="#59C3FF" stroke-linecap="round"/>
<path d="M30 40H36V34H30V40Z" fill="#FFC2AF"/>
<path d="M31 51L30 40.6696L33 39.5L36 40.6696L35 51H31Z" fill="#ED2828"/>
<path d="M38 24H40.5C41.0523 24 41.5 24.4477 41.5 25V27C41.5 28.1046 40.6046 29 39.5 29H38V24Z" fill="#FFBFAB"/>
<path d="M28 24H25.5C24.9477 24 24.5 24.4477 24.5 25V27C24.5 28.1046 25.3954 29 26.5 29H28V24Z" fill="#FFBFAB"/>
<path d="M27 20H39V29C39 32.3137 36.3137 35 33 35C29.6863 35 27 32.3137 27 29V20Z" fill="#FFCEBF"/>
<path d="M41 24H35C33.067 24 31.5 22.433 31.5 20.5V16.5V16C31.5 15.4477 31.9477 15 32.5 15H37C39.2091 15 41 16.7909 41 19V24Z" fill="#2F3438"/>
<path d="M27 24H25V20.5C25 18.2909 26.7909 16.5 29 16.5H29.5V16C29.5 15.4477 29.9477 15 30.5 15H35C37.2091 15 39 16.7909 39 19V24H33C31.067 24 29.5 22.433 29.5 20.5H29C27.8954 20.5 27 21.3954 27 22.5V24Z" fill="#3C444A"/>
<path d="M30 35.5L28 37L29.3986 40.0769C29.6294 40.5846 30.2309 40.8054 30.7354 40.5676L33 39.5L30 35.5Z" fill="#FF6868"/>
<path d="M36 35.5L38 37L36.6014 40.0769C36.3706 40.5846 35.7691 40.8054 35.2646 40.5676L33 39.5L36 35.5Z" fill="#FF6868"/>
<path d="M31 28V27" stroke="#3C444A" stroke-width="1.5" stroke-linecap="round"/>
<path d="M35 28V27" stroke="#3C444A" stroke-width="1.5" stroke-linecap="round"/>
<path d="M32 31C32 31 32.6813 31.4306 33.2 31.4913C33.9335 31.5771 35 31 35 31" stroke="#DE6D03" stroke-width="1.5" stroke-linecap="round"/>
<path d="M26 46V46C26.5523 46 27 45.5523 27 45V44C27 42.8954 26.1046 42 25 42V42C23.8954 42 23 42.8954 23 44V45C23 45.5523 23.4477 46 24 46V46" stroke="#CDCDD4" stroke-linecap="round"/>
</svg>
