<svg width="42" height="42" viewBox="0 0 42 42" fill="none" xmlns="http://www.w3.org/2000/svg">
<circle cx="21" cy="21" r="21" fill="#F8F8FB"/>
<path d="M20.9165 28.9563H29.9165" stroke="#1D1E25" stroke-width="1.5" stroke-linecap="round" stroke-linejoin="round"/>
<path d="M25.4165 12.4563C25.8143 12.0585 26.3539 11.835 26.9165 11.835C27.1951 11.835 27.4709 11.8898 27.7283 11.9964C27.9857 12.103 28.2195 12.2593 28.4165 12.4563C28.6135 12.6533 28.7697 12.8871 28.8763 13.1445C28.983 13.4019 29.0378 13.6777 29.0378 13.9563C29.0378 14.2349 28.983 14.5107 28.8763 14.7681C28.7697 15.0254 28.6135 15.2593 28.4165 15.4563L15.9165 27.9563L11.9165 28.9563L12.9165 24.9563L25.4165 12.4563Z" stroke="#1D1E25" stroke-width="1.5" stroke-linecap="round" stroke-linejoin="round"/>
</svg>
