<svg width="40" height="40" viewBox="0 0 40 40" fill="none" xmlns="http://www.w3.org/2000/svg">
<rect width="40" height="40" rx="20" fill="#F8F8FB"/>
<path d="M21.4645 13.1367H20.5085V12.1808C20.5085 11.9 20.2809 11.6724 20 11.6724C19.7191 11.6724 19.4915 11.9 19.4915 12.1808V13.1368L18.5356 13.1367C18.2549 13.1367 18.0271 13.3644 18.0271 13.6451C18.0271 13.926 18.2549 14.1536 18.5356 14.1536H19.4915V15.0994C19.4915 15.3803 19.7191 15.6079 20 15.6079C20.2809 15.6079 20.5085 15.3803 20.5085 15.0994V14.1536H21.4645C21.7452 14.1536 21.9729 13.926 21.9729 13.6451C21.9729 13.3644 21.7452 13.1367 21.4645 13.1367V13.1367Z" fill="#8D43EC"/>
<path d="M29.4917 28.4892H27.7968V13.6453C27.7968 13.3646 27.5692 13.1368 27.2883 13.1368H24.0204V10.0148C24.0204 9.73395 23.7928 9.50635 23.5119 9.50635H16.4882C16.2073 9.50635 15.9797 9.73395 15.9797 10.0148V13.1368H12.7119C12.431 13.1368 12.2034 13.3646 12.2034 13.6453V28.4892H10.5085C10.2276 28.4892 10 28.7168 10 28.9977C10 29.2786 10.2276 29.5062 10.5085 29.5062H29.4915C29.7724 29.5062 30 29.2786 30 28.9977C30 28.7168 29.7724 28.4892 29.4915 28.4892H29.4917ZM16.997 10.5231H23.0037V21.2722H16.997V10.5231Z" fill="#8D43EC"/>
</svg>
