<svg width="40" height="40" viewBox="0 0 40 40" fill="none" xmlns="http://www.w3.org/2000/svg">
<rect width="40" height="40" rx="20" fill="#F8F8FB"/>
<path d="M26.9063 25.4565L23.5283 23.7161C23.0539 23.4702 22.4656 23.6027 22.143 24.0189L20.9095 25.6079C19.695 24.9647 18.7841 24.3404 17.7214 23.2811C16.5827 22.146 15.9755 21.2191 15.3682 20.0462L16.9433 18.8166C17.3608 18.495 17.4936 17.9086 17.247 17.4357L15.5011 14.0873C15.1974 13.5009 14.4384 13.3116 13.888 13.6711L11.7435 15.1088C11.2501 15.4492 10.9654 16.0168 11.0034 16.6032C11.0414 17.2086 11.1172 17.9841 11.2691 18.5138C11.8953 20.9163 13.3945 23.3944 15.52 25.4943C17.6264 27.5941 20.1125 29.0885 22.5226 29.7317C23.0539 29.8642 23.832 29.9398 24.4583 29.9966C25.0656 30.0344 25.6539 29.7506 25.9765 29.2399L27.3809 27.0645C27.6843 26.497 27.4755 25.7592 26.9061 25.4565L26.9063 25.4565Z" fill="#FFC046"/>
<path d="M20.0745 19.0624C20.492 19.1759 20.9096 19.4028 21.2322 19.7434C21.5737 20.0839 21.8015 20.4812 21.9153 20.8974C22.0103 21.2378 22.3328 21.4649 22.6934 21.4459H22.7693C23.2627 21.427 23.6232 20.9541 23.4905 20.4812C23.3006 19.8001 22.9402 19.138 22.3898 18.6083C21.8395 18.0598 21.1942 17.7003 20.511 17.5111C20.0366 17.3786 19.5621 17.7381 19.5432 18.23V18.3056C19.5052 18.6462 19.7329 18.9678 20.0746 19.0624L20.0745 19.0624Z" fill="#FFC046"/>
<path d="M20.3022 16.3383C21.346 16.5275 22.3517 17.0193 23.1488 17.8138C23.9647 18.6272 24.4582 19.6109 24.629 20.6514C24.7049 21.0297 25.0465 21.3136 25.445 21.2946H25.5019C25.9763 21.2757 26.3178 20.8405 26.223 20.3866C25.9763 19.0245 25.3311 17.7192 24.2873 16.6599C23.2246 15.6005 21.9341 14.9574 20.5488 14.7303C20.0933 14.6547 19.6569 14.9951 19.6379 15.4492V15.5059C19.6381 15.9222 19.9227 16.2627 20.3022 16.3383L20.3022 16.3383Z" fill="#FFC046"/>
<path d="M28.9939 20.2733C28.7093 18.2491 27.7983 16.3007 26.2422 14.7495C24.686 13.1982 22.7314 12.2902 20.7009 12.0065C20.2454 11.9497 19.8279 12.2713 19.8089 12.7443V12.8199C19.79 13.236 20.0935 13.5765 20.4921 13.6332C22.1811 13.8602 23.7942 14.6359 25.0846 15.9223C26.375 17.2086 27.1342 18.8355 27.3809 20.5003C27.4379 20.8976 27.7795 21.2002 28.1969 21.1813H28.2727C28.7093 21.1436 29.0508 20.7274 28.9939 20.2733L28.9939 20.2733Z" fill="#FFC046"/>
</svg>
