<svg width="40" height="40" viewBox="0 0 40 40" fill="none" xmlns="http://www.w3.org/2000/svg">
<rect width="40" height="40" rx="20" fill="#F8F8FB"/>
<path d="M18.6156 16.4287C18.2333 16.4287 17.9233 16.7485 17.9233 17.143C17.9233 17.5374 18.2333 17.8573 18.6156 17.8573H21.3849C21.7672 17.8573 22.0772 17.5374 22.0772 17.143C22.0772 16.7485 21.7672 16.4287 21.3849 16.4287H18.6156Z" fill="#48BD69"/>
<path fill-rule="evenodd" clip-rule="evenodd" d="M13.0769 12.1429V15.1009L11.7878 16.1539C11.2902 16.5603 11 17.1792 11 17.8339V27.8571C11 28.1953 11.0759 28.5151 11.2111 28.7996L14.1202 25.9138C14.3957 25.6403 14.834 25.6491 15.099 25.9335C15.364 26.2178 15.3555 26.67 15.0798 26.9434L12.2001 29.8002C12.4665 29.9284 12.7637 30 13.0769 30H26.9231C27.2363 30 27.5335 29.9284 27.7998 29.8002L24.9202 26.9434C24.6445 26.67 24.636 26.2178 24.901 25.9335C25.166 25.6491 25.6043 25.6403 25.8798 25.9138L28.7889 28.7996C28.9241 28.5152 29 28.1953 29 27.8571V17.8339C29 17.1792 28.7098 16.5603 28.2122 16.1539L26.9231 15.1009V13.5714C26.9231 13.382 26.8501 13.2003 26.7203 13.0663L23.9511 10.2092C23.8213 10.0753 23.6451 10 23.4615 10H15.1538C14.0067 10 13.0769 10.9593 13.0769 12.1429H13.0769ZM15.1539 11.4286C14.7715 11.4286 14.4615 11.7484 14.4615 12.1429V18.84L19.5344 23.598C19.7985 23.8456 20.2018 23.8456 20.4659 23.598L25.5388 18.84V14.2857H23.4618C23.0795 14.2857 22.7695 13.9659 22.7695 13.5714V11.4286H15.1539ZM13.0769 16.9229V17.541L12.8502 17.3285C12.806 17.2869 12.7578 17.2524 12.7071 17.2249L13.0769 16.9229ZM26.9231 17.541V16.9229L27.2929 17.2248C27.2422 17.2524 27.194 17.2869 27.1497 17.3285L26.9231 17.541Z" fill="#48BD69"/>
</svg>
