<svg width="65" height="65" viewBox="0 0 65 65" fill="none" xmlns="http://www.w3.org/2000/svg">
<rect x="0.5" y="0.5" width="64" height="64" rx="32" fill="white" stroke="#E9ECF2"/>
<rect x="16" y="26" width="21" height="25" rx="1" fill="#E4F3FF"/>
<rect x="18" y="15" width="17" height="8" rx="1" fill="#276167"/>
<rect x="28" y="15" width="2" height="3" fill="#184044"/>
<rect x="22" y="15" width="2" height="3" fill="#184044"/>
<rect x="21" y="23" width="12" height="3" fill="#C1DEE1"/>
<rect x="16" y="31" width="21" height="15" fill="#59C3FF"/>
<path d="M25.5 35H27.5V42H25.5V35Z" fill="white"/>
<path d="M23 39.5L23 37.5L30 37.5V39.5L23 39.5Z" fill="white"/>
<path d="M34.8284 38.1421C33.2663 36.58 33.2663 34.0474 34.8284 32.4853L40.4853 26.8284C42.0474 25.2663 44.58 25.2663 46.1421 26.8284C47.7042 28.3905 47.7042 30.9232 46.1421 32.4853L40.4853 38.1421C38.9232 39.7042 36.3905 39.7042 34.8284 38.1421Z" fill="#ED2828"/>
<path d="M34.8284 38.1421C33.2663 36.58 33.2663 34.0474 34.8284 32.4853L37.735 29.5787L43.3919 35.2355L40.4853 38.1421C38.9232 39.7042 36.3905 39.7042 34.8284 38.1421Z" fill="#F8F8FB"/>
<path d="M48.4853 45.4853C48.4853 43.2761 46.6944 41.4853 44.4853 41.4853H36.4853C34.2762 41.4853 32.4853 43.2761 32.4853 45.4853C32.4853 47.6944 34.2762 49.4853 36.4853 49.4853H44.4853C46.6944 49.4853 48.4853 47.6944 48.4853 45.4853Z" fill="white"/>
<path d="M48.4853 45.4853C48.4853 43.2761 46.6944 41.4853 44.4853 41.4853H40.3747V49.4853H44.4853C46.6944 49.4853 48.4853 47.6944 48.4853 45.4853Z" fill="#FFC046"/>
</svg>
