<svg width="42" height="42" viewBox="0 0 42 42" fill="none" xmlns="http://www.w3.org/2000/svg">
<circle cx="21" cy="21" r="21" fill="#48BD69"/>
<path d="M14.6037 17.2288C16.0089 17.2288 17.1479 16.0588 17.1479 14.6145C17.1479 13.1706 16.0089 12 14.6037 12C13.1985 12 12.0595 13.17 12.0595 14.6145C12.0595 16.0588 13.1992 17.2288 14.6037 17.2288ZM20.0783 24.6707C18.5248 23.6468 17.7089 22.2779 17.0859 20.7955C16.7742 19.0824 15.8332 17.7846 14.0751 17.7846C12.0897 17.7846 11 19.4379 11 21.4776V29.999H17.1491V25.6766C17.5897 26.1157 18.0908 26.5329 18.6754 26.9179C18.8927 27.0615 19.135 27.1299 19.3756 27.1299C19.8029 27.1299 20.2223 26.913 20.4699 26.5152C20.8573 25.8941 20.6817 25.0695 20.0781 24.6709L20.0783 24.6707ZM27.3974 17.2288C28.8016 17.2288 29.9404 16.0588 29.9404 14.6145C29.9404 13.1706 28.8017 12 27.3974 12C25.9927 12 24.8531 13.17 24.8531 14.6145C24.8519 16.0588 25.9918 17.2288 27.3974 17.2288ZM27.9264 17.7851C26.1676 17.7851 25.2272 19.0822 24.9161 20.7961C24.292 22.2785 23.4753 23.6465 21.9226 24.6708C21.318 25.0703 21.1429 25.8952 21.5291 26.516C21.7779 26.9133 22.1963 27.1302 22.6242 27.1302C22.8652 27.1302 23.1073 27.0622 23.3251 26.9188C23.9079 26.5336 24.41 26.1166 24.8517 25.6779V30H30.9998L31 21.4791C31 19.4388 29.9111 17.7853 27.9264 17.7853L27.9264 17.7851Z" fill="white"/>
</svg>
