<svg width="42" height="42" viewBox="0 0 42 42" fill="none" xmlns="http://www.w3.org/2000/svg">
<circle cx="21" cy="21" r="21" fill="#48BD69"/>
<path d="M28.9063 24.9678L25.5283 23.2274C25.0539 22.9814 24.4656 23.1139 24.143 23.5301L22.9095 25.1191C21.695 24.4759 20.7841 23.8516 19.7214 22.7923C18.5827 21.6572 17.9755 20.7304 17.3682 19.5574L18.9433 18.3278C19.3608 18.0063 19.4936 17.4198 19.247 16.9469L17.5011 13.5985C17.1974 13.0121 16.4384 12.8229 15.888 13.1823L13.7435 14.62C13.2501 14.9605 12.9654 15.528 13.0034 16.1144C13.0414 16.7198 13.1172 17.4953 13.2691 18.025C13.8953 20.4276 15.3945 22.9057 17.52 25.0055C19.6264 27.1053 22.1125 28.5998 24.5226 29.243C25.0539 29.3755 25.832 29.4511 26.4583 29.5078C27.0656 29.5457 27.6539 29.2618 27.9765 28.7512L29.3809 26.5758C29.6843 26.0082 29.4755 25.2704 28.9061 24.9677L28.9063 24.9678Z" fill="white"/>
</svg>
