<svg width="24" height="24" viewBox="0 0 24 24" fill="none" xmlns="http://www.w3.org/2000/svg">
<path d="M12 22C9.34784 22 6.8043 20.9464 4.92893 19.0711C3.05357 17.1957 2 14.6522 2 12V12C2 9.34784 3.05357 6.8043 4.92893 4.92893C6.8043 3.05357 9.34784 2 12 2V2C14.6522 2 17.1957 3.05357 19.0711 4.92893C20.9464 6.8043 22 9.34784 22 12V12C22 14.6522 20.9464 17.1957 19.0711 19.0711C17.1957 20.9464 14.6522 22 12 22V22ZM12 6.44444C11.121 6.44444 10.2617 6.70511 9.5308 7.19347C8.79991 7.68183 8.23026 8.37596 7.89387 9.18807C7.55748 10.0002 7.46946 10.8938 7.64095 11.756C7.81244 12.6181 8.23574 13.41 8.8573 14.0316C9.47887 14.6532 10.2708 15.0764 11.1329 15.2479C11.9951 15.4194 12.8887 15.3314 13.7008 14.995C14.5129 14.6586 15.2071 14.089 15.6954 13.3581C16.1838 12.6272 16.4444 11.7679 16.4444 10.8889C16.4444 9.71015 15.9762 8.57969 15.1427 7.74619C14.3092 6.9127 13.1787 6.44444 12 6.44444ZM14.4111 14.6111C13.6951 15.0819 12.8569 15.3327 12 15.3327C11.1431 15.3327 10.3049 15.0819 9.58889 14.6111C8.53083 14.9548 7.55881 15.5214 6.73843 16.2728C5.91805 17.0242 5.26841 17.9428 4.83333 18.9667C5.7569 19.9156 6.85973 20.6716 8.07781 21.1908C9.2959 21.7101 10.605 21.9823 11.9291 21.9916C13.2532 22.0009 14.566 21.7471 15.7913 21.245C17.0165 20.7429 18.1299 20.0025 19.0667 19.0667L19.1667 18.9667C18.7316 17.9428 18.0819 17.0242 17.2616 16.2728C16.4412 15.5214 15.4692 14.9548 14.4111 14.6111V14.6111Z" stroke="#808D9E" stroke-width="1.5" stroke-linecap="round" stroke-linejoin="round"/>
</svg>
