<svg width="140" height="122" viewBox="0 0 140 122" fill="none" xmlns="http://www.w3.org/2000/svg">
<rect width="140" height="122" rx="8" fill="#F8F8FB"/>
<path d="M120 21C120.552 21 121 20.5523 121 20C121 19.4477 120.552 19 120 19C119.448 19 119 19.4477 119 20C119 20.5523 119.448 21 120 21Z" stroke="#808D9E" stroke-width="2" stroke-linecap="round" stroke-linejoin="round"/>
<path d="M120 14C120.552 14 121 13.5523 121 13C121 12.4477 120.552 12 120 12C119.448 12 119 12.4477 119 13C119 13.5523 119.448 14 120 14Z" stroke="#808D9E" stroke-width="2" stroke-linecap="round" stroke-linejoin="round"/>
<path d="M120 28C120.552 28 121 27.5523 121 27C121 26.4477 120.552 26 120 26C119.448 26 119 26.4477 119 27C119 27.5523 119.448 28 120 28Z" stroke="#808D9E" stroke-width="2" stroke-linecap="round" stroke-linejoin="round"/>
<path d="M17.84 106L19.744 96.2H21.158L23.545 102.479L25.932 96.2H27.346L29.25 106H27.507L26.331 99.938L24.126 105.776H22.957L20.752 99.938L19.583 106H17.84ZM33.2657 106.182C32.6217 106.182 32.0337 106.016 31.5017 105.685C30.9744 105.354 30.552 104.908 30.2347 104.348C29.922 103.788 29.7657 103.17 29.7657 102.493C29.7657 101.984 29.8567 101.508 30.0387 101.065C30.2207 100.617 30.4704 100.225 30.7877 99.889C31.1097 99.5483 31.483 99.2823 31.9077 99.091C32.3324 98.8997 32.785 98.804 33.2657 98.804C33.8117 98.804 34.311 98.9207 34.7637 99.154C35.221 99.3827 35.6084 99.6977 35.9257 100.099C36.243 100.5 36.474 100.958 36.6187 101.471C36.7634 101.984 36.796 102.521 36.7167 103.081H31.5997C31.665 103.342 31.7724 103.578 31.9217 103.788C32.071 103.993 32.26 104.159 32.4887 104.285C32.7174 104.406 32.9764 104.469 33.2657 104.474C33.5644 104.479 33.835 104.409 34.0777 104.264C34.325 104.115 34.5304 103.914 34.6937 103.662L36.4367 104.068C36.152 104.689 35.7274 105.197 35.1627 105.594C34.598 105.986 33.9657 106.182 33.2657 106.182ZM31.5437 101.8H34.9877C34.9364 101.52 34.8267 101.268 34.6587 101.044C34.4954 100.815 34.2924 100.633 34.0497 100.498C33.807 100.363 33.5457 100.295 33.2657 100.295C32.9857 100.295 32.7267 100.363 32.4887 100.498C32.2507 100.629 32.0477 100.808 31.8797 101.037C31.7164 101.261 31.6044 101.515 31.5437 101.8ZM43.175 95.5H44.883V106H43.175V105.125C42.951 105.438 42.6686 105.692 42.328 105.888C41.9873 106.084 41.593 106.182 41.145 106.182C40.6363 106.182 40.1603 106.086 39.717 105.895C39.2736 105.704 38.8816 105.44 38.541 105.104C38.205 104.763 37.9413 104.371 37.75 103.928C37.5586 103.485 37.463 103.009 37.463 102.5C37.463 101.991 37.5586 101.515 37.75 101.072C37.9413 100.629 38.205 100.239 38.541 99.903C38.8816 99.5623 39.2736 99.2963 39.717 99.105C40.1603 98.9137 40.6363 98.818 41.145 98.818C41.593 98.818 41.9873 98.916 42.328 99.112C42.6686 99.3033 42.951 99.5577 43.175 99.875V95.5ZM41.166 104.537C41.53 104.537 41.852 104.446 42.132 104.264C42.412 104.082 42.6313 103.837 42.79 103.529C42.9486 103.216 43.028 102.873 43.028 102.5C43.028 102.122 42.9486 101.779 42.79 101.471C42.6313 101.158 42.4096 100.911 42.125 100.729C41.845 100.547 41.5253 100.456 41.166 100.456C40.8066 100.456 40.4776 100.549 40.179 100.736C39.885 100.918 39.6493 101.163 39.472 101.471C39.2993 101.779 39.213 102.122 39.213 102.5C39.213 102.878 39.3016 103.221 39.479 103.529C39.6563 103.837 39.892 104.082 40.186 104.264C40.4846 104.446 40.8113 104.537 41.166 104.537ZM46.5646 99H48.2726V106H46.5646V99ZM47.4326 98.097C47.1806 98.097 46.9683 98.0153 46.7956 97.852C46.6229 97.684 46.5366 97.474 46.5366 97.222C46.5366 96.9747 46.6229 96.767 46.7956 96.599C46.9683 96.431 47.1783 96.347 47.4256 96.347C47.6729 96.347 47.8806 96.431 48.0486 96.599C48.2213 96.767 48.3076 96.9747 48.3076 97.222C48.3076 97.474 48.2236 97.684 48.0556 97.852C47.8876 98.0153 47.6799 98.097 47.4326 98.097ZM54.1312 103.893L55.6712 104.726C55.3492 105.165 54.9455 105.517 54.4602 105.783C53.9748 106.049 53.4452 106.182 52.8712 106.182C52.2272 106.182 51.6392 106.016 51.1072 105.685C50.5798 105.354 50.1575 104.91 49.8402 104.355C49.5275 103.795 49.3712 103.177 49.3712 102.5C49.3712 101.987 49.4622 101.508 49.6442 101.065C49.8262 100.617 50.0758 100.225 50.3932 99.889C50.7152 99.5483 51.0885 99.2823 51.5132 99.091C51.9378 98.8997 52.3905 98.804 52.8712 98.804C53.4452 98.804 53.9748 98.937 54.4602 99.203C54.9455 99.469 55.3492 99.826 55.6712 100.274L54.1312 101.1C53.9678 100.913 53.7742 100.769 53.5502 100.666C53.3308 100.563 53.1045 100.512 52.8712 100.512C52.5352 100.512 52.2318 100.605 51.9612 100.792C51.6905 100.974 51.4758 101.217 51.3172 101.52C51.1585 101.819 51.0792 102.145 51.0792 102.5C51.0792 102.85 51.1585 103.177 51.3172 103.48C51.4758 103.779 51.6905 104.019 51.9612 104.201C52.2318 104.383 52.5352 104.474 52.8712 104.474C53.1138 104.474 53.3448 104.423 53.5642 104.32C53.7835 104.213 53.9725 104.07 54.1312 103.893ZM61.9871 99H63.6951V106H61.9871L61.9101 105.132C61.7188 105.445 61.4645 105.699 61.1471 105.895C60.8345 106.086 60.4635 106.182 60.0341 106.182C59.5161 106.182 59.0308 106.084 58.5781 105.888C58.1255 105.692 57.7265 105.421 57.3811 105.076C57.0405 104.731 56.7721 104.332 56.5761 103.879C56.3848 103.426 56.2891 102.941 56.2891 102.423C56.2891 101.924 56.3801 101.455 56.5621 101.016C56.7488 100.577 57.0078 100.192 57.3391 99.861C57.6705 99.5297 58.0531 99.2707 58.4871 99.084C58.9211 98.8973 59.3878 98.804 59.8871 98.804C60.3491 98.804 60.7621 98.9067 61.1261 99.112C61.4948 99.3173 61.8075 99.5787 62.0641 99.896L61.9871 99ZM59.9921 104.537C60.3561 104.537 60.6781 104.446 60.9581 104.264C61.2381 104.082 61.4575 103.837 61.6161 103.529C61.7748 103.216 61.8541 102.873 61.8541 102.5C61.8541 102.122 61.7748 101.779 61.6161 101.471C61.4575 101.158 61.2358 100.911 60.9511 100.729C60.6711 100.547 60.3515 100.456 59.9921 100.456C59.6328 100.456 59.3038 100.549 59.0051 100.736C58.7111 100.918 58.4755 101.163 58.2981 101.471C58.1255 101.779 58.0391 102.122 58.0391 102.5C58.0391 102.878 58.1278 103.221 58.3051 103.529C58.4825 103.837 58.7181 104.082 59.0121 104.264C59.3108 104.446 59.6375 104.537 59.9921 104.537ZM65.131 106V95.5H66.839V106H65.131ZM71.8849 106V96.2H75.6439C76.1759 96.2 76.6566 96.333 77.0859 96.599C77.5153 96.865 77.8559 97.222 78.1079 97.67C78.3599 98.1133 78.4859 98.6057 78.4859 99.147C78.4859 99.5903 78.4043 99.9987 78.2409 100.372C78.0823 100.741 77.8583 101.06 77.5689 101.331C77.2843 101.602 76.9553 101.807 76.5819 101.947L78.9269 106H76.9599L74.6919 102.101H73.5929V106H71.8849ZM73.5929 100.393H75.4479C75.6906 100.393 75.9123 100.332 76.1129 100.211C76.3136 100.09 76.4746 99.9263 76.5959 99.721C76.7173 99.5157 76.7779 99.287 76.7779 99.035C76.7779 98.7783 76.7173 98.5473 76.5959 98.342C76.4746 98.1367 76.3136 97.9733 76.1129 97.852C75.9123 97.7307 75.6906 97.67 75.4479 97.67H73.5929V100.393ZM82.8673 106.182C82.2233 106.182 81.6353 106.016 81.1033 105.685C80.5759 105.354 80.1536 104.908 79.8363 104.348C79.5236 103.788 79.3673 103.17 79.3673 102.493C79.3673 101.984 79.4583 101.508 79.6403 101.065C79.8223 100.617 80.0719 100.225 80.3893 99.889C80.7113 99.5483 81.0846 99.2823 81.5093 99.091C81.9339 98.8997 82.3866 98.804 82.8673 98.804C83.4133 98.804 83.9126 98.9207 84.3653 99.154C84.8226 99.3827 85.2099 99.6977 85.5273 100.099C85.8446 100.5 86.0756 100.958 86.2203 101.471C86.3649 101.984 86.3976 102.521 86.3183 103.081H81.2013C81.2666 103.342 81.3739 103.578 81.5233 103.788C81.6726 103.993 81.8616 104.159 82.0903 104.285C82.3189 104.406 82.5779 104.469 82.8673 104.474C83.1659 104.479 83.4366 104.409 83.6793 104.264C83.9266 104.115 84.1319 103.914 84.2953 103.662L86.0383 104.068C85.7536 104.689 85.3289 105.197 84.7643 105.594C84.1996 105.986 83.5673 106.182 82.8673 106.182ZM81.1453 101.8H84.5893C84.5379 101.52 84.4283 101.268 84.2603 101.044C84.0969 100.815 83.8939 100.633 83.6513 100.498C83.4086 100.363 83.1473 100.295 82.8673 100.295C82.5873 100.295 82.3283 100.363 82.0903 100.498C81.8523 100.629 81.6493 100.808 81.4813 101.037C81.3179 101.261 81.2059 101.515 81.1453 101.8ZM91.8245 103.893L93.3645 104.726C93.0425 105.165 92.6389 105.517 92.1535 105.783C91.6682 106.049 91.1385 106.182 90.5645 106.182C89.9205 106.182 89.3325 106.016 88.8005 105.685C88.2732 105.354 87.8509 104.91 87.5335 104.355C87.2209 103.795 87.0645 103.177 87.0645 102.5C87.0645 101.987 87.1555 101.508 87.3375 101.065C87.5195 100.617 87.7692 100.225 88.0865 99.889C88.4085 99.5483 88.7819 99.2823 89.2065 99.091C89.6312 98.8997 90.0839 98.804 90.5645 98.804C91.1385 98.804 91.6682 98.937 92.1535 99.203C92.6389 99.469 93.0425 99.826 93.3645 100.274L91.8245 101.1C91.6612 100.913 91.4675 100.769 91.2435 100.666C91.0242 100.563 90.7979 100.512 90.5645 100.512C90.2285 100.512 89.9252 100.605 89.6545 100.792C89.3839 100.974 89.1692 101.217 89.0105 101.52C88.8519 101.819 88.7725 102.145 88.7725 102.5C88.7725 102.85 88.8519 103.177 89.0105 103.48C89.1692 103.779 89.3839 104.019 89.6545 104.201C89.9252 104.383 90.2285 104.474 90.5645 104.474C90.8072 104.474 91.0382 104.423 91.2575 104.32C91.4769 104.213 91.6659 104.07 91.8245 103.893ZM97.4825 106.182C96.8385 106.182 96.2505 106.016 95.7185 105.685C95.1912 105.354 94.7688 104.91 94.4515 104.355C94.1388 103.795 93.9825 103.177 93.9825 102.5C93.9825 101.987 94.0735 101.508 94.2555 101.065C94.4375 100.617 94.6872 100.225 95.0045 99.889C95.3265 99.5483 95.6998 99.2823 96.1245 99.091C96.5492 98.8997 97.0018 98.804 97.4825 98.804C98.1265 98.804 98.7122 98.9697 99.2395 99.301C99.7715 99.6323 100.194 100.078 100.507 100.638C100.824 101.198 100.983 101.819 100.983 102.5C100.983 103.009 100.892 103.485 100.71 103.928C100.528 104.371 100.276 104.763 99.9535 105.104C99.6362 105.44 99.2652 105.704 98.8405 105.895C98.4205 106.086 97.9678 106.182 97.4825 106.182ZM97.4825 104.474C97.8232 104.474 98.1288 104.383 98.3995 104.201C98.6702 104.019 98.8825 103.779 99.0365 103.48C99.1952 103.181 99.2745 102.855 99.2745 102.5C99.2745 102.136 99.1928 101.805 99.0295 101.506C98.8708 101.203 98.6538 100.962 98.3785 100.785C98.1078 100.603 97.8092 100.512 97.4825 100.512C97.1465 100.512 96.8432 100.603 96.5725 100.785C96.3018 100.967 96.0872 101.21 95.9285 101.513C95.7698 101.816 95.6905 102.145 95.6905 102.5C95.6905 102.869 95.7722 103.202 95.9355 103.501C96.0988 103.8 96.3158 104.038 96.5865 104.215C96.8618 104.388 97.1605 104.474 97.4825 104.474ZM102.079 106L102.072 99H103.78L103.787 99.623C104.025 99.371 104.31 99.1727 104.641 99.028C104.973 98.8787 105.33 98.804 105.712 98.804C105.969 98.804 106.226 98.8413 106.482 98.916L105.81 100.638C105.633 100.568 105.456 100.533 105.278 100.533C105.003 100.533 104.751 100.601 104.522 100.736C104.298 100.867 104.119 101.046 103.983 101.275C103.853 101.499 103.787 101.749 103.787 102.024V106H102.079ZM112.232 95.5H113.94V106H112.232V105.125C112.008 105.438 111.725 105.692 111.385 105.888C111.044 106.084 110.65 106.182 110.202 106.182C109.693 106.182 109.217 106.086 108.774 105.895C108.33 105.704 107.938 105.44 107.598 105.104C107.262 104.763 106.998 104.371 106.807 103.928C106.615 103.485 106.52 103.009 106.52 102.5C106.52 101.991 106.615 101.515 106.807 101.072C106.998 100.629 107.262 100.239 107.598 99.903C107.938 99.5623 108.33 99.2963 108.774 99.105C109.217 98.9137 109.693 98.818 110.202 98.818C110.65 98.818 111.044 98.916 111.385 99.112C111.725 99.3033 112.008 99.5577 112.232 99.875V95.5ZM110.223 104.537C110.587 104.537 110.909 104.446 111.189 104.264C111.469 104.082 111.688 103.837 111.847 103.529C112.005 103.216 112.085 102.873 112.085 102.5C112.085 102.122 112.005 101.779 111.847 101.471C111.688 101.158 111.466 100.911 111.182 100.729C110.902 100.547 110.582 100.456 110.223 100.456C109.863 100.456 109.534 100.549 109.236 100.736C108.942 100.918 108.706 101.163 108.529 101.471C108.356 101.779 108.27 102.122 108.27 102.5C108.27 102.878 108.358 103.221 108.536 103.529C108.713 103.837 108.949 104.082 109.243 104.264C109.541 104.446 109.868 104.537 110.223 104.537ZM121.722 106.182C121.129 106.182 120.595 106.042 120.119 105.762C119.643 105.482 119.265 105.106 118.985 104.635C118.705 104.159 118.565 103.632 118.565 103.053H120.273C120.273 103.314 120.333 103.552 120.455 103.767C120.581 103.982 120.753 104.154 120.973 104.285C121.192 104.411 121.442 104.474 121.722 104.474C121.978 104.474 122.216 104.411 122.436 104.285C122.66 104.154 122.839 103.982 122.975 103.767C123.11 103.552 123.178 103.314 123.178 103.053C123.178 102.712 123.087 102.43 122.905 102.206C122.723 101.977 122.468 101.807 122.142 101.695C121.82 101.583 121.444 101.527 121.015 101.527V100.211C121.593 100.211 122.051 100.101 122.387 99.882C122.727 99.6627 122.898 99.3407 122.898 98.916C122.898 98.6967 122.842 98.496 122.73 98.314C122.618 98.132 122.468 97.9873 122.282 97.88C122.1 97.768 121.899 97.712 121.68 97.712C121.456 97.712 121.239 97.768 121.029 97.88C120.819 97.9873 120.646 98.132 120.511 98.314C120.38 98.496 120.315 98.6967 120.315 98.916H118.607C118.607 98.5147 118.688 98.139 118.852 97.789C119.015 97.4343 119.239 97.124 119.524 96.858C119.813 96.592 120.14 96.3843 120.504 96.235C120.872 96.081 121.257 96.004 121.659 96.004C122.186 96.004 122.674 96.1347 123.122 96.396C123.57 96.6573 123.929 97.0073 124.2 97.446C124.47 97.8847 124.606 98.3747 124.606 98.916C124.606 99.294 124.517 99.665 124.34 100.029C124.162 100.393 123.91 100.65 123.584 100.799C123.868 100.902 124.106 101.074 124.298 101.317C124.489 101.555 124.634 101.828 124.732 102.136C124.834 102.439 124.886 102.745 124.886 103.053C124.886 103.627 124.741 104.152 124.452 104.628C124.162 105.099 123.777 105.477 123.297 105.762C122.821 106.042 122.296 106.182 121.722 106.182Z" fill="#1D1E25"/>
<path d="M55 20C52.9375 20 51.25 21.6875 51.25 23.75V76.25C51.25 78.3125 52.9375 80 55 80H92.5C94.5625 80 96.25 78.3125 96.25 76.25V35L81.25 20H55Z" fill="#DA4949"/>
<path d="M85 35H96.25L81.25 20V31.25C81.25 33.3125 82.9375 35 85 35Z" fill="#A40606"/>
<path d="M96.25 46.25L85 35H96.25V46.25Z" fill="#BA3C3C"/>
<path d="M81.25 68.75C81.25 69.7812 80.4062 70.625 79.375 70.625H45.625C44.5937 70.625 43.75 69.7812 43.75 68.75V50C43.75 48.9687 44.5937 48.125 45.625 48.125H79.375C80.4062 48.125 81.25 48.9687 81.25 50V68.75Z" fill="#F28C8C"/>
<path d="M79.375 70.625H51.25V72.5H79.375C80.4062 72.5 81.25 71.6562 81.25 70.625V68.75C81.25 69.7812 80.4062 70.625 79.375 70.625Z" fill="#BA3C3C"/>
<path d="M48.672 64.0376C48.3488 64.0376 48.0718 63.924 47.841 63.6967C47.6102 63.4695 47.4965 63.1925 47.5001 62.8658C47.4965 62.5462 47.6102 62.2727 47.841 62.0455C48.0718 61.8182 48.3488 61.7045 48.672 61.7045C48.9845 61.7045 49.2561 61.8182 49.4869 62.0455C49.7213 62.2727 49.8403 62.5462 49.8438 62.8658C49.8403 63.0824 49.7835 63.2795 49.6734 63.457C49.5668 63.6346 49.4248 63.7766 49.2472 63.8832C49.0732 63.9862 48.8815 64.0376 48.672 64.0376Z" fill="white"/>
<path d="M51.8347 66.9886V55.7386H53.731V57.0916H53.8429C53.9423 56.8928 54.0826 56.6815 54.2637 56.4577C54.4448 56.2305 54.6898 56.0369 54.9987 55.8771C55.3077 55.7138 55.7019 55.6321 56.1813 55.6321C56.8134 55.6321 57.3833 55.7937 57.8911 56.1168C58.4025 56.4364 58.8073 56.9105 59.1056 57.5391C59.4075 58.1641 59.5584 58.9311 59.5584 59.8402C59.5584 60.7386 59.411 61.5021 59.1163 62.1307C58.8215 62.7592 58.4203 63.2386 57.9125 63.5689C57.4046 63.8991 56.8294 64.0643 56.1866 64.0643C55.7179 64.0643 55.329 63.9862 55.0201 63.8299C54.7111 63.6737 54.4625 63.4854 54.2743 63.2653C54.0897 63.0415 53.9458 62.8303 53.8429 62.6314H53.763V66.9886H51.8347ZM53.7257 59.8295C53.7257 60.3587 53.8002 60.8221 53.9494 61.2198C54.1021 61.6175 54.3205 61.9283 54.6046 62.152C54.8922 62.3722 55.2402 62.4822 55.6486 62.4822C56.0747 62.4822 56.4316 62.3686 56.7193 62.1413C57.0069 61.9105 57.2235 61.5962 57.3691 61.1985C57.5183 60.7972 57.5929 60.3409 57.5929 59.8295C57.5929 59.3217 57.5201 58.8707 57.3745 58.4766C57.2289 58.0824 57.0122 57.7734 56.7246 57.5497C56.437 57.326 56.0783 57.2141 55.6486 57.2141C55.2367 57.2141 54.8869 57.3224 54.5992 57.5391C54.3116 57.7557 54.0932 58.0593 53.9441 58.4499C53.7985 58.8406 53.7257 59.3004 53.7257 59.8295Z" fill="white"/>
<path d="M64.2459 64.0643C63.6032 64.0643 63.0279 63.8991 62.5201 63.5689C62.0122 63.2386 61.611 62.7592 61.3162 62.1307C61.0215 61.5021 60.8741 60.7386 60.8741 59.8402C60.8741 58.9311 61.0233 58.1641 61.3215 57.5391C61.6234 56.9105 62.03 56.4364 62.5414 56.1168C63.0527 55.7937 63.6227 55.6321 64.2512 55.6321C64.7306 55.6321 65.1248 55.7138 65.4338 55.8771C65.7427 56.0369 65.9877 56.2305 66.1688 56.4577C66.35 56.6815 66.4902 56.8928 66.5897 57.0916H66.6696V53.0114H68.6032V63.9205H66.7068V62.6314H66.5897C66.4902 62.8303 66.3464 63.0415 66.1582 63.2653C65.97 63.4854 65.7214 63.6737 65.4125 63.8299C65.1035 63.9862 64.7147 64.0643 64.2459 64.0643ZM64.7839 62.4822C65.1923 62.4822 65.5403 62.3722 65.8279 62.152C66.1156 61.9283 66.334 61.6175 66.4831 61.2198C66.6323 60.8221 66.7068 60.3587 66.7068 59.8295C66.7068 59.3004 66.6323 58.8406 66.4831 58.4499C66.3375 58.0593 66.1209 57.7557 65.8333 57.5391C65.5492 57.3224 65.1994 57.2141 64.7839 57.2141C64.3542 57.2141 63.9956 57.326 63.7079 57.5497C63.4203 57.7734 63.2036 58.0824 63.0581 58.4766C62.9125 58.8707 62.8397 59.3217 62.8397 59.8295C62.8397 60.3409 62.9125 60.7972 63.0581 61.1985C63.2072 61.5962 63.4256 61.9105 63.7132 62.1413C64.0044 62.3686 64.3613 62.4822 64.7839 62.4822Z" fill="white"/>
<path d="M74.8021 55.7386V57.2301H69.9655V55.7386H74.8021ZM71.1746 63.9205V54.9663C71.1746 54.4158 71.2883 53.9577 71.5155 53.592C71.7464 53.2262 72.0553 52.9528 72.4424 52.7717C72.8294 52.5906 73.2591 52.5 73.7314 52.5C74.0652 52.5 74.3618 52.5266 74.621 52.5799C74.8802 52.6332 75.072 52.6811 75.1963 52.7237L74.8128 54.2152C74.7311 54.1903 74.6281 54.1655 74.5038 54.1406C74.3795 54.1122 74.241 54.098 74.0883 54.098C73.7297 54.098 73.4758 54.185 73.3266 54.359C73.181 54.5295 73.1082 54.7745 73.1082 55.0941V63.9205H71.1746Z" fill="white"/>
</svg>
