<svg width="20" height="20" viewBox="0 0 20 20" fill="none" xmlns="http://www.w3.org/2000/svg">
<path d="M5.17228 13.8468H15.0096L15.0097 11.0717C15.0097 8.23909 12.6174 5.96168 9.74657 6.15307C7.1246 6.32529 5.15327 8.6219 5.15327 11.244L5.15314 13.8469L5.17228 13.8468ZM6.97135 11.0717C6.97135 9.34931 8.36845 7.95208 10.091 7.95208C10.4163 7.95208 10.6843 8.22002 10.6843 8.54535C10.6843 8.87068 10.4163 9.13862 10.091 9.13862C9.03834 9.13862 8.17713 9.99983 8.17713 11.0525V12.0285C8.17713 12.3539 7.90919 12.6218 7.58386 12.6218C7.25853 12.6218 6.99059 12.3539 6.99059 12.0285V11.0717H6.97135Z" fill="white"/>
<path d="M10.0909 4.77505C10.4163 4.77505 10.6842 4.50712 10.6842 4.18178V2.59327C10.6842 2.26793 10.4163 2 10.0909 2C9.76562 2 9.49768 2.26794 9.49768 2.59327V4.18178C9.49768 4.50713 9.76562 4.77505 10.0909 4.77505Z" fill="white"/>
<path d="M4.78953 6.61236C4.90434 6.72718 5.05747 6.78458 5.21058 6.78458C5.3637 6.78458 5.51683 6.72718 5.63164 6.61236C5.86126 6.38274 5.86126 5.99985 5.63164 5.75115L4.50248 4.622C4.27286 4.39238 3.88997 4.39238 3.64127 4.622C3.41165 4.85163 3.41165 5.23451 3.64127 5.48321L4.78953 6.61236Z" fill="white"/>
<path d="M3.79429 11.0717C3.79429 10.7464 3.52636 10.4784 3.20103 10.4784L1.59327 10.4783C1.26793 10.4783 1 10.7462 1 11.0716C1 11.3969 1.26794 11.6648 1.59327 11.6648L3.20089 11.665C3.52636 11.665 3.79429 11.397 3.79429 11.0717Z" fill="white"/>
<path d="M18.5885 10.4593H16.9809C16.6556 10.4593 16.3876 10.7272 16.3876 11.0525C16.3876 11.3779 16.6556 11.6458 16.9809 11.6458H18.5694C18.8948 11.6458 19.1627 11.3779 19.1627 11.0525C19.1627 10.7272 18.9138 10.4593 18.5885 10.4593H18.5885Z" fill="white"/>
<path d="M14.9713 6.78463C15.1244 6.78463 15.2776 6.72722 15.3924 6.61241L16.5215 5.48326C16.7512 5.25363 16.7512 4.87075 16.5215 4.62205C16.2919 4.39242 15.909 4.39242 15.6603 4.62205L14.5503 5.7703C14.3206 5.99993 14.3206 6.38281 14.5503 6.63151C14.6651 6.72723 14.8182 6.78464 14.9713 6.78464V6.78463Z" fill="white"/>
<path d="M15.5646 15.0526H4.61727C3.81345 15.0526 3.14355 15.7033 3.14355 16.5263C3.14355 17.3301 3.79424 18 4.61727 18H15.5646C16.3685 18 17.0384 17.3493 17.0384 16.5263C17.0384 15.7034 16.3875 15.0526 15.5646 15.0526Z" fill="white"/>
</svg>
