<svg width="55" height="18" viewBox="0 0 55 18" fill="none" xmlns="http://www.w3.org/2000/svg">
<path fill-rule="evenodd" clip-rule="evenodd" d="M13.7477 17.6158H9.05367L5.53375 4.23379C5.36668 3.61822 5.01194 3.07401 4.49013 2.81752C3.1879 2.17295 1.75293 1.65998 0.1875 1.40126V0.886047H7.74915C8.79276 0.886047 9.57547 1.65998 9.70593 2.5588L11.5323 12.2117L16.224 0.886047H20.7875L13.7477 17.6158ZM23.3962 17.6158H18.9631L22.6135 0.886047H27.0465L23.3962 17.6158ZM32.782 5.5205C32.9124 4.61944 33.6951 4.10423 34.6083 4.10423C36.0433 3.97487 37.6064 4.23359 38.9109 4.87593L39.6936 1.27393C38.3891 0.75872 36.9542 0.5 35.6519 0.5C31.3493 0.5 28.2184 2.81733 28.2184 6.03348C28.2184 8.48017 30.4361 9.76484 32.0015 10.5388C33.6951 11.3105 34.3474 11.8257 34.2169 12.5974C34.2169 13.7549 32.9124 14.2701 31.6102 14.2701C30.0448 14.2701 28.4793 13.8843 27.0467 13.2397L26.2639 16.844C27.8294 17.4863 29.523 17.745 31.0884 17.745C35.9128 17.8721 38.9109 15.557 38.9109 12.0822C38.9109 7.70624 32.782 7.44975 32.782 5.5205ZM54.4258 17.6158L50.9058 0.886047H47.125C46.3423 0.886047 45.5596 1.40126 45.2987 2.17295L38.7807 17.6158H43.3442L44.2551 15.1714H49.8622L50.384 17.6158H54.4258ZM47.7776 5.39087L49.0798 11.6961H45.4294L47.7776 5.39087Z" fill="#172B85"/>
</svg>
